<svg width="150" height="40" viewBox="0 0 150 40" fill="none" xmlns="http://www.w3.org/2000/svg">
<path d="M39.9989 23.0417C35.425 20.8544 28.0659 19.4616 21.3711 19.4616C17.2685 19.4616 14.7481 12.402 14.0457 7.77739L16.6985 3.29787C17.2932 2.29356 18.1413 1.46104 19.1588 0.882643C20.1763 0.304244 21.328 0 22.5 0C23.672 0 24.8237 0.304244 25.8412 0.882643C26.8587 1.46104 27.7068 2.29356 28.3015 3.29787L39.9989 23.0417ZM43.7536 29.3782L44.0678 29.9049C44.6706 30.9221 44.9921 32.0797 44.9999 33.2603C45.0076 34.441 44.7014 35.6027 44.1121 36.6276C43.5228 37.6526 42.6715 38.5044 41.6445 39.0966C40.6175 39.6889 39.4513 40.0005 38.2641 40H6.7337C5.54669 40.0001 4.38074 39.6882 3.35403 39.0958C2.32732 38.5034 1.47634 37.6515 0.88735 36.6266C0.298355 35.6018 -0.00771997 34.4402 0.000147948 33.2598C0.00801586 32.0793 0.329547 30.9219 0.932152 29.9049L11.0697 12.7993C12.0056 18.9594 15.8815 23.9255 21.3711 23.9255C27.5362 23.9255 36.4305 25.1218 43.7536 29.3782Z" fill="#3E82FC"/>
<path d="M62.152 8.144V16.208C62.152 16.816 61.672 17.264 61.096 17.264H59.144C58.568 17.264 58.088 16.816 58.088 16.208V8.144C58.088 7.92 57.896 7.728 57.672 7.728H55.336C55.112 7.728 54.92 7.92 54.92 8.144V29.584C54.92 29.808 55.112 30 55.336 30H57.672C57.896 30 58.088 29.808 58.088 29.584V21.104C58.088 20.496 58.568 20.048 59.144 20.048H61.096C61.672 20.048 62.152 20.496 62.152 21.104V29.584C62.152 29.808 62.344 30 62.568 30H64.872C65.128 30 65.32 29.808 65.32 29.584V8.144C65.32 7.92 65.128 7.728 64.872 7.728H62.568C62.344 7.728 62.152 7.92 62.152 8.144ZM69.17 8.144V29.584C69.17 29.808 69.362 30 69.586 30H71.922C72.146 30 72.338 29.808 72.338 29.584V8.144C72.338 7.92 72.146 7.728 71.922 7.728H69.586C69.362 7.728 69.17 7.92 69.17 8.144ZM85.1933 17.968H81.5133C81.2893 17.968 81.0653 18.192 81.0653 18.416V20.272C81.0653 20.528 81.2893 20.752 81.5133 20.752H82.4093C82.7933 20.752 83.1133 21.04 83.1133 21.456V25.84C83.1133 26.608 82.4733 27.248 81.6733 27.248H80.4573C79.6893 27.248 79.0493 26.608 79.0493 25.84V11.888C79.0493 11.088 79.6893 10.448 80.4573 10.448H81.4813C82.2812 10.448 82.8893 11.088 82.8893 11.888V13.808C82.8893 14.128 83.1773 14.384 83.4973 14.384H85.4813C85.8013 14.384 86.0893 14.128 86.0893 13.808V11.632C86.0893 9.456 84.3293 7.728 82.1853 7.728H79.7853C77.6413 7.728 75.8813 9.456 75.8813 11.632V25.968C75.8813 28.208 77.6733 30 79.9133 30H82.2493C84.4573 30 86.2813 28.208 86.2813 25.968V19.056C86.2813 18.448 85.8013 17.968 85.1933 17.968ZM96.777 8.144V16.208C96.777 16.816 96.297 17.264 95.721 17.264H93.769C93.193 17.264 92.713 16.816 92.713 16.208V8.144C92.713 7.92 92.521 7.728 92.297 7.728H89.961C89.737 7.728 89.545 7.92 89.545 8.144V29.584C89.545 29.808 89.737 30 89.961 30H92.297C92.521 30 92.713 29.808 92.713 29.584V21.104C92.713 20.496 93.193 20.048 93.769 20.048H95.721C96.297 20.048 96.777 20.496 96.777 21.104V29.584C96.777 29.808 96.969 30 97.193 30H99.497C99.753 30 99.945 29.808 99.945 29.584V8.144C99.945 7.92 99.753 7.728 99.497 7.728H97.193C96.969 7.728 96.777 7.92 96.777 8.144ZM113.875 29.584L109.459 16.88C109.427 16.72 109.427 16.528 109.459 16.368L113.491 8.144C113.555 7.92 113.427 7.728 113.203 7.728H110.867C110.643 7.728 110.387 7.92 110.323 8.144L106.963 14.928V8.144C106.963 7.92 106.771 7.728 106.547 7.728H104.211C103.987 7.728 103.795 7.92 103.795 8.144V29.584C103.795 29.808 103.987 30 104.211 30H106.547C106.771 30 106.963 29.808 106.963 29.584V21.328L107.539 20.144L110.707 29.584C110.771 29.808 111.027 30 111.251 30H113.555C113.811 30 113.939 29.808 113.875 29.584ZM116.483 8.144V29.584C116.483 29.808 116.674 30 116.899 30H119.235C119.459 30 119.651 29.808 119.651 29.584V8.144C119.651 7.92 119.459 7.728 119.235 7.728H116.899C116.674 7.728 116.483 7.92 116.483 8.144ZM133.466 7.728H131.162C130.938 7.728 130.746 7.92 130.746 8.144V19.088C130.746 19.408 130.298 19.472 130.17 19.184L126.49 8.272C126.394 7.952 126.074 7.728 125.722 7.728H123.93C123.706 7.728 123.514 7.92 123.514 8.144V29.584C123.514 29.808 123.706 30 123.93 30H126.266C126.49 30 126.682 29.808 126.682 29.584V19.76C126.682 19.472 127.13 19.376 127.226 19.664L131.002 29.424C131.13 29.776 131.418 30 131.77 30H133.498C133.722 30 133.914 29.808 133.914 29.584V8.144C133.914 7.92 133.722 7.728 133.466 7.728ZM146.756 17.968H143.076C142.852 17.968 142.628 18.192 142.628 18.416V20.272C142.628 20.528 142.852 20.752 143.076 20.752H143.972C144.356 20.752 144.676 21.04 144.676 21.456V25.84C144.676 26.608 144.036 27.248 143.236 27.248H142.02C141.252 27.248 140.612 26.608 140.612 25.84V11.888C140.612 11.088 141.252 10.448 142.02 10.448H143.044C143.844 10.448 144.452 11.088 144.452 11.888V13.808C144.452 14.128 144.74 14.384 145.06 14.384H147.044C147.364 14.384 147.652 14.128 147.652 13.808V11.632C147.652 9.456 145.892 7.728 143.748 7.728H141.348C139.204 7.728 137.444 9.456 137.444 11.632V25.968C137.444 28.208 139.236 30 141.476 30H143.812C146.02 30 147.844 28.208 147.844 25.968V19.056C147.844 18.448 147.364 17.968 146.756 17.968Z" fill="#05060A"/>
</svg>
