<svg width="726" height="394" viewBox="0 0 726 394" fill="none" xmlns="http://www.w3.org/2000/svg">
<g opacity="0.06" clip-path="url(#clip0_464_10698)">
<path d="M301.136 608.098C305.082 606.835 308.643 604.546 311.449 601.47C320.891 590.686 314.031 571.229 313.994 558.837C313.954 534.767 328.816 515.779 346.012 499.822C365.031 482.196 387.229 463.021 388.65 437.387C390.378 405.962 348.347 356.408 314.576 378.379C304.314 385.041 298.018 396.278 292.986 407.405C287.954 418.533 283.697 430.278 275.834 439.652C267.465 449.719 255.752 456.338 245.676 464.716C213.6 491.579 239.028 539.943 251.189 571.843C255.814 583.993 260.897 596.773 271.249 604.571C278.631 610.093 291.178 611.52 301.136 608.098Z" stroke="url(#paint0_linear_464_10698)" stroke-width="2" stroke-linecap="round" stroke-linejoin="round"/>
<path d="M577.237 596.922C581.683 585.684 586.387 574.54 591.346 563.491C598.396 547.951 606.336 531.912 620.174 521.894C632.108 513.254 648.816 508.347 653.562 494.466C657.624 482.628 649.242 469.294 654.594 457.965C659.224 448.122 668.157 449.496 676.15 444.457C702.993 427.547 673.008 397.579 656.686 386.87C643.211 378.034 627.824 369.702 611.628 371.907C569.009 377.715 553.847 437.634 510.285 450.701C470.567 462.607 435.934 483.369 412.866 520.665C387.918 560.894 400.24 624.163 443.554 644.402C460.911 652.514 480.252 655.348 498.698 660.571C510.672 663.979 523.764 668.122 532.055 677.421C537.252 683.243 540.091 697.62 551.955 692.107C558.922 688.875 559.069 679.101 557.489 671.699C552.498 647.995 568.534 618.835 577.237 596.922Z" stroke="url(#paint1_linear_464_10698)" stroke-width="2" stroke-linecap="round" stroke-linejoin="round"/>
<path d="M277.312 678.122C283.011 674.901 289.012 672.268 295.222 670.264C314.828 664.241 335.339 658.739 355.87 660.452C378.313 662.322 396.543 678.084 405.772 698.416C418.97 727.462 400.704 766.918 436.834 781.607C450.809 787.293 466.887 786.395 481.603 782.189C506.96 774.948 529.535 760.269 554.684 752.438C573.602 746.561 592.087 739.451 609.285 729.282C626.484 719.113 643.963 706.914 664.347 704.936C686.081 702.812 706.628 712.777 726.496 721.264C749.372 731.039 775.041 739.922 800.883 734.557C829.506 728.619 852.333 700.969 857.7 672.782C860.296 659.167 858.956 644.36 851.185 633.114C846.649 626.545 840.24 621.579 834.586 615.959C828.931 610.339 823.771 603.58 822.884 595.57C821.196 580.449 835.363 566.502 846.071 557.645C861.843 544.59 879.125 536.069 898.393 529.586C919.722 522.401 942.223 516.318 959.558 501.82C979.978 484.795 990.578 457.81 991.088 431.509C991.598 405.208 982.885 379.606 970.206 356.866C957.182 333.521 934.639 317.233 923.742 292.644C916.201 275.65 915.46 254.267 926.749 239.039C936.746 225.544 951.881 221.514 966.59 215.685C978.116 211.12 992.42 207.717 1001.58 198.775C1021.32 179.517 1020.19 147.36 1010.96 121.945C996.223 81.4267 966.415 49.4643 932.591 23.9462C917.318 12.4263 901.872 1.04587 885.534 -8.96747C846.718 -32.7533 782.708 -58.9531 746.787 -13.7451C733.01 3.61513 725.548 25.0844 720.671 46.5669C715.468 69.4959 713.03 93.9559 721.108 115.744C733.2 148.426 764.384 142.286 780.606 164.556C796.558 186.45 783.463 221.278 765.941 238.647C722.002 282.196 641.636 288.397 584.69 280.33C564.902 277.536 539.029 270.776 522.053 284.729C503.092 300.295 489.875 324.123 484.348 347.614C480.193 365.353 476.972 402.532 456.294 409.151C447.692 411.913 438.639 407.552 431.277 402.57C402.459 383.048 381.577 355.251 357.502 330.324C343.118 315.436 327.833 294.556 307.64 287.413C299.165 284.41 288.495 285.504 282.506 292.426C278.868 296.642 277.481 302.24 276.208 307.622C269.699 335.117 263.248 362.707 256.012 389.944C249.557 414.21 238.296 437.527 220.216 455.607C207.184 468.639 189.716 480.571 171.781 485.364C157.525 489.179 142.317 482.415 128.343 488.511C105.911 498.294 95.2868 532.587 90.745 554.057C85.2403 580.072 84.2491 607.89 90.9263 633.507C101.089 672.584 133.583 700.977 172.611 709.423C193.992 714.054 216.327 708.935 236.491 700.793C250.631 695.125 263.753 685.518 277.312 678.122Z" stroke="url(#paint2_linear_464_10698)" stroke-width="2" stroke-linecap="round" stroke-linejoin="round"/>
<path d="M711.829 403.82C714.924 412.697 715.898 422.219 714.677 431.637C712.693 446.585 705.604 460.502 694.616 471.019C688.382 476.948 680.923 481.861 676.864 489.757C673.904 495.484 672.11 502.066 669.954 508.094C662.952 527.677 649.988 537.024 634.941 550.492C616.376 567.366 603.764 589.774 599.065 614.231C595.128 634.621 596.352 662.482 619.56 670.991C624.366 672.535 629.567 672.532 634.443 670.982C649.865 666.579 660.663 652.928 670.787 640.394C697.176 607.705 741.556 592.207 778.098 574.206C783.867 571.374 793.265 566.628 796.181 560.317C799.457 553.254 794.478 544.226 793.701 537.142C791.943 521.309 801.784 505.729 814.768 496.124C824.659 488.796 837.554 482.421 849.726 480.692C859.3 479.319 866.558 481.399 874.447 474.258C892.394 458.009 889.027 428.317 877.782 410.018C871.25 399.402 862.225 390.36 856.911 379.052C850.357 365.095 850.802 336.21 873.988 342.263C882.413 344.449 888.9 350.815 896.014 355.757C903.127 360.698 912.505 364.394 920.476 360.584C929.102 356.457 932.06 345.044 929.872 335.906C927.685 326.768 921.624 319.144 916.364 311.381C905.902 295.916 897.889 278.172 897.111 259.322C895.958 231.237 912.065 218.899 928.34 199.432C945.426 178.951 934.81 148.561 922.668 125.438C908.813 98.9505 892.538 71.641 865.892 58.0798C839.247 44.5186 799.653 51.6486 787.95 79.7365C776.406 107.462 796.267 136.602 802.7 165.537C809.706 196.869 797.571 225.168 778.552 250.249C767.311 265.073 750.928 276.769 735.771 287.138C719.596 298.208 703.654 309.622 687.946 321.38C682.852 325.217 677.584 329.314 674.829 335.057C670.413 344.228 676.599 352.882 682.336 359.471C694.227 373.099 706.181 387.242 711.829 403.82Z" stroke="url(#paint3_linear_464_10698)" stroke-width="2" stroke-linecap="round" stroke-linejoin="round"/>
<path d="M780.587 474.681C789.289 450.698 799.391 427.335 808.99 403.746C812.525 395.117 815.596 360.499 796.121 372.249C789.453 376.285 790.47 386.389 785.982 392.762C782.585 397.618 776.429 399.733 772.318 403.998C764.556 412.048 766.357 425.63 764.815 435.764C762.881 448.496 760.078 461.453 754.147 473.089C751.229 478.859 747.518 485.695 750.363 491.441C753.585 497.948 763.588 498.064 769.446 493.531C775.304 488.998 778.06 481.623 780.587 474.681Z" stroke="url(#paint4_linear_464_10698)" stroke-width="2" stroke-linecap="round" stroke-linejoin="round"/>
<path d="M272.495 455.827C258.93 474.842 247.851 494.292 253.44 519.707C256.76 534.826 264.037 548.654 271.222 562.285C273.911 567.372 276.958 572.799 282.187 575.091C293.491 580.071 299.897 563.002 301.513 554.662C306.214 540.979 301.496 527.121 310.871 514.741C322.87 498.939 340.81 485.498 355.071 471.627C364.365 462.589 374.114 452.755 376.878 440.177C379.643 427.598 374.885 415.004 368.093 404.476C362.93 396.481 356.308 389.095 347.812 384.907C339.316 380.72 328.555 379.986 320.118 384.789C309.952 390.575 305.306 402.471 300.435 413.098C293.438 428.551 282.315 442.085 272.495 455.827Z" stroke="url(#paint5_linear_464_10698)" stroke-width="0.5" stroke-linecap="round" stroke-linejoin="round"/>
<path d="M271.444 488.086C270.825 491.512 270.672 494.995 270.989 498.44C272.924 517.542 288.514 523.906 302.436 511.138C317.348 497.483 326.355 480.427 339.089 464.96C346.527 455.96 354.003 446.65 357.942 435.681C361.882 424.712 361.834 411.771 354.958 402.653C347.159 392.335 331.012 389.585 319.86 396.678C312.213 401.541 307.497 409.806 303.103 417.714C293.009 435.891 282.871 454.145 275.587 473.603C273.763 478.302 272.376 483.151 271.444 488.086V488.086Z" stroke="url(#paint6_linear_464_10698)" stroke-width="0.5" stroke-linecap="round" stroke-linejoin="round"/>
<path d="M225.552 472.445C224.977 473.139 224.411 473.841 223.853 474.569C205.359 498.734 193.603 529.235 195.219 559.574C196.048 575.376 199.572 590.859 205.639 605.354C223.4 647.598 285.115 662.832 320.445 630.066C346.999 605.43 340.852 568.145 354.266 537.616C364.488 514.354 388.239 481.077 409.739 468.729C414.46 466.012 419.804 463.503 422.324 458.725C425.977 451.812 422.293 443.628 418.66 436.92C406.93 415.32 395.205 391.745 375.895 375.892C364.334 366.399 348.553 357.238 333.855 353.904C321.53 351.084 308.898 353.274 299.222 361.982C290.249 370.055 288.585 381.006 283.896 391.417C279.595 401.016 273.171 410.734 267.263 419.631C254.905 438.237 239.538 455.624 225.552 472.445Z" stroke="url(#paint7_linear_464_10698)" stroke-width="0.5" stroke-linecap="round" stroke-linejoin="round"/>
<path d="M981.838 404.136C974.698 373.921 955.475 347.505 937.881 322.787C925.84 305.862 913.987 287.389 910.442 266.416C907.147 246.943 918.849 230.844 933.479 218.455C949.254 205.108 968.097 198.234 980.169 180.611C987.409 170.174 991.388 157.871 991.587 145.304C991.637 132.791 987.953 120.82 982.484 109.599C979.082 102.73 975.213 96.1093 970.905 89.7833C952.248 61.9173 928.557 37.1838 900.114 19.3925C857.127 -7.52254 784.644 -28.7983 750.441 24.5224C733.878 50.3392 734.744 85.4526 751.078 110.649C764.282 131.047 789.171 147.264 792.644 172.944C795.561 194.749 786.876 217.323 773.57 234.704C747.447 268.858 708.258 290.728 665.928 296.061C631.656 300.381 598.102 293.134 564.192 290.709C515.232 287.204 494.21 333.967 490.382 376.15C489.279 388.392 488.824 400.952 484.107 412.377C461.895 466.272 412.961 401.717 395.773 379.768C376.123 354.662 348.01 330.632 318.616 317.832C309.542 313.884 297.761 311.521 290.458 318.501C286.446 322.343 285.006 328.045 283.742 333.418C279.859 349.9 277.904 368.987 271.522 384.69C266.997 395.803 259.665 407.481 253.696 417.95C237.643 446.017 214.032 469.116 185.626 484.543C172.249 491.757 157.861 497.23 145.529 506.149C99.7521 539.311 117.078 600.616 141.861 639.3C154.607 659.205 173.042 673.591 196.179 679.335C219.745 685.177 246.148 677.366 269.073 670.249C292.697 662.908 316.411 654.373 340.983 653.419C379.095 651.931 422.675 674.434 424.836 715.586C425.645 731.026 423.21 750.763 433.168 763.692C443.964 777.703 466.347 772.197 481.246 768.487C512.156 760.805 544.489 751.801 574.416 740.772C600.435 731.205 618.447 706.351 645.741 699.449C661.02 695.614 677.441 698.464 692.153 702.837C713.291 709.119 731.735 721.221 753.021 727.441C770.139 732.396 788.827 733.709 805.813 727.81C833.258 718.245 855.846 681.615 846.172 653.018C842.967 643.54 836.903 635.409 831.305 627.135C825.707 618.861 820.442 610 819.166 600.036C817.448 586.693 823.619 573.646 832.824 564.033C836.953 559.7 840.951 555.618 845.04 551.818C854.103 543.314 863.572 536.137 875.943 530.593C894.657 522.235 915.37 519.3 933.426 509.258C950.911 499.533 964.305 483.37 972.176 465.142C978.132 451.359 985.616 433.908 984.252 418.887C983.795 413.912 982.988 408.982 981.838 404.136Z" stroke="url(#paint8_linear_464_10698)" stroke-width="0.5" stroke-linecap="round" stroke-linejoin="round"/>
<path d="M962.319 155.062C964.411 144.351 964.424 133.384 962.357 122.764C956.771 94.1024 937.142 69.3821 916.481 49.9552C897.409 32.0127 868.943 11.8343 842.284 8.32079C808.895 3.93182 766.846 24.3323 757.539 59.1081C753.51 74.0542 758.47 95.9383 765.927 109.077C777.263 129.101 790.217 145.912 794.704 169.322C799.085 192.26 794.792 217.437 779.48 236.026C762.505 256.635 739.695 277.509 715.215 288.406C684.33 302.159 654.737 308.796 620.979 305.828C599.369 303.922 571.722 301.193 550.252 307.246C528.153 313.487 512.222 342.577 504.695 362.244C500.055 374.284 497.371 386.95 496.747 399.752C496.232 410.948 495.963 422.321 489.092 432.061C480.764 443.785 465.722 447.179 452.524 444.146C431.111 439.241 416.563 417.029 403.382 401.295C383.315 377.318 363.292 352.516 333.55 340.15C324.345 336.332 313.254 333.755 304.571 338.974C298.267 342.765 294.751 349.796 291.6 356.428C281.883 376.858 273.674 398.379 260.836 416.956C243.981 441.338 225.592 464.639 205.782 486.714C193.106 500.833 179.766 514.564 169.909 530.771C163.626 540.839 159.381 552.01 157.42 563.634C154.49 582.372 158.551 601.08 169.684 618.642C186.087 644.533 212.608 661.445 244.004 661.477C277.186 661.541 308.855 646.155 342.828 647.549C378.742 648.989 428.645 669.787 433.607 710.074C435.35 724.241 431.063 741.483 438.937 754.239C448.378 769.57 471.716 762.328 485.603 757.118C505.259 749.737 524.671 751.686 544.598 745.341C558.062 741.063 572.904 737.817 585.112 730.703C598.725 722.549 611.638 713.255 623.708 702.923C632.519 695.539 641.691 687.318 652.993 685.744C661.173 684.611 669.078 687.929 676.712 690.193C689.472 693.988 701.742 699.411 714.131 704.12C724.22 707.971 733.363 714.16 743.825 717.671C758.958 722.753 775.034 724.696 791.085 723.386C812.549 721.601 836.257 704.753 836.631 681.235C836.992 655.219 822.021 636.13 810.936 614.428C800.481 593.999 818.21 570.513 831.23 555.609C847.53 536.915 862.863 514.264 889.122 510.757C899.692 509.338 910.699 509.554 920.513 505.293C930.541 500.987 938.255 492.645 945.333 484.293C956.083 471.846 966.481 458.526 971.445 442.9C978.719 419.818 972.843 394.759 962.675 373.209C956.63 360.387 949.733 347.999 942.03 336.126C931.135 319.48 917.669 303.234 910.112 284.591C904.952 271.872 903.095 257.209 907.934 244.186C914.439 226.747 930.702 215.764 942.564 202.187C953.582 189.488 959.237 171.302 962.319 155.062Z" stroke="url(#paint9_linear_464_10698)" stroke-width="0.5" stroke-linecap="round" stroke-linejoin="round"/>
<path d="M330.199 593.739C332.559 583.501 333.394 572.937 335.291 562.584C341.266 530.497 357.3 500.924 381.051 478.18C390.324 469.348 401.2 460.867 404.776 448.631C409.515 432.38 399.546 415.947 388.413 403.58C371.794 385.223 350.392 357.81 320.969 369.15C309.212 373.674 300.252 383.585 293.354 394.167C282.26 411.17 272.824 428.841 258.816 443.834C249.295 454.017 239.126 463.795 231.784 475.619C212.804 506.23 224.492 546.38 236.689 576.613C242.783 591.743 249.181 607.299 260.762 618.758C272.344 630.218 290.528 636.534 305.619 629.662C317.273 624.374 324.762 612.42 328.536 600.207C329.136 598.045 329.702 595.9 330.199 593.739Z" stroke="url(#paint10_linear_464_10698)" stroke-width="0.5" stroke-linecap="round" stroke-linejoin="round" stroke-dasharray="8 3 4 3"/>
<path d="M691.758 453.01C699.6 444.727 699.356 431.66 696.571 420.725C687.971 386.878 648.817 342.546 609.318 350.379C593.334 353.509 581.287 366.779 570.555 379.243C552.197 400.555 536.295 424.183 511.543 437.728C486.394 451.501 460.45 459.058 433.989 469.643C396.261 484.72 369.027 517.625 379.203 557.826C388.115 592.924 402.382 632.804 438.341 648.241C452.338 654.228 467.801 656.016 482.634 659.52C497.467 663.024 512.654 668.688 522.343 680.376C526.366 685.216 529.28 690.893 533.295 695.724C537.31 700.555 542.896 704.664 549.216 704.694C557.28 704.696 564.245 697.917 567.021 690.285C569.797 682.653 569.343 674.38 568.603 666.324C566.149 637.91 581.382 608.33 592.538 582.284C599.951 564.954 604.679 551.194 619.56 537.909C629.504 529.034 641.492 521.614 650.367 511.652C656.607 504.351 660.444 495.33 661.339 485.857C662.7 473.664 665.191 467.624 677.09 461.991C682.098 459.614 687.379 457.423 691.298 453.471L691.758 453.01Z" stroke="url(#paint11_linear_464_10698)" stroke-width="0.5" stroke-linecap="round" stroke-linejoin="round"/>
<path d="M451.61 492.754C422.519 513.237 404.445 549.41 407.112 584.606C409.654 618.129 436.847 637.034 467.406 643.387C482.372 646.504 501.268 654.452 516.376 653.436C531.485 652.42 544.096 640.896 550.843 627.73C558.425 612.949 560.517 596.153 565.192 580.272C574.235 550.006 592.546 523.15 617.51 503.538C626.765 496.269 643.386 496.73 647.153 484.338C650.419 473.703 642.911 462.72 647.174 452.056C651.641 440.798 667.046 437.176 672.264 426.27C676.127 418.23 673.149 408.406 667.282 401.861C661.415 395.317 653.345 391.399 645.367 387.696C629.985 380.428 613.717 376.897 598.002 386.586C587.286 393.159 579.293 403.341 571.885 413.518C564.476 423.694 557.269 434.28 547.474 442.19C532.954 453.943 514.6 458.577 497.481 464.864C479.396 471.471 466.978 481.919 451.61 492.754Z" stroke="url(#paint12_linear_464_10698)" stroke-width="0.5" stroke-linecap="round" stroke-linejoin="round" stroke-dasharray="8 3"/>
<path d="M773.647 314.224C765.276 319.302 758.15 325.782 753.43 334.441C743.593 352.666 747.866 374.558 749.975 394.912C752.031 414.692 748.661 429.132 738.838 446.154C730.355 460.851 734.263 474.143 732.204 491.076C730.429 505.687 723.606 519.523 719.912 533.709C718.851 537.861 717.883 542.836 720.672 546.024C724.723 550.666 732.41 547.597 737.62 544.067C776.59 517.466 805.797 478.752 820.559 434.132C828.285 410.582 836.3 383.601 828.646 359.962C824.998 348.669 821.909 335.119 829.395 325.629C833.378 320.576 840.133 317.132 841.382 310.857C842.631 304.582 837.008 298.541 830.73 297.094C824.451 295.646 817.861 297.449 811.597 299.247C798.75 302.959 785.072 307.265 773.647 314.224Z" stroke="url(#paint13_linear_464_10698)" stroke-width="0.5" stroke-linecap="round" stroke-linejoin="round" stroke-dasharray="8 3 4 3"/>
<path d="M841.043 357.294C841.033 350.802 842.109 343.834 845.674 339.335C851.556 331.908 862.382 331.405 867.881 322.221C872.322 314.707 869.685 305.137 865.822 297.573C859.7 285.595 850.392 274.341 850.334 260.765C850.276 246.476 860.569 234.128 871.135 224.225C883.688 212.452 905.073 195.193 910.402 178.471C915.731 161.75 907.114 142.708 899.758 128.262C887.6 104.34 867.108 66.5251 834.759 67.9895C799.523 69.5903 801.333 101.67 807.712 126.363C821.9 181.263 810.217 244.002 766.909 283.455C759.766 289.97 752.071 296.036 745.437 303.077C732.369 316.96 721.849 340.775 722.217 359.474C722.466 373.624 726 387.375 727.185 401.436C729.516 428.088 724.176 455.028 711.792 479.091C697.244 507.375 694.05 537.057 669.666 560.456C662.259 567.575 653.593 573.609 647.946 582.176C642.299 590.743 640.423 603.045 647.225 610.421C653.747 617.482 665.577 617.027 674.025 612.095C684.772 605.814 692.686 595.657 701.849 587.496C712.045 578.404 723.828 573.854 736.496 569.32C747.12 565.487 758.474 560.925 766.463 552.528C774.913 543.602 776.889 531.677 783.284 521.496C793.734 504.857 807.53 490.534 823.771 479.464C838.796 469.277 857.244 460.219 862.502 442.923C867.439 426.678 858.266 414.898 852.139 401.143C847.24 390.171 843.787 378.583 841.863 366.662C841.362 363.569 841.088 360.438 841.043 357.294Z" stroke="url(#paint14_linear_464_10698)" stroke-width="0.5" stroke-linecap="round" stroke-linejoin="round"/>
<path d="M617.774 464.325C626.449 453 633.096 436.693 624.87 425.426C615.461 412.542 593.946 417.299 582.289 428.735C570.632 440.171 564.351 456.062 553.213 467.999C533.163 489.322 501.848 487.511 475.77 495.489C455.826 501.659 438.592 514.725 427.193 532.316C414.706 551.731 402.324 593.962 428.822 607.619C437.923 612.306 448.708 612.336 459.04 612.311C479.977 612.275 499.363 621.532 519.211 609.546C534.786 600.135 541.431 583.115 545.566 566.398C550.361 546.866 558.134 528.854 571.095 513.109C577.697 505.081 584.885 502.086 592.743 496.113C602.854 488.362 611.226 475.1 617.774 464.325Z" stroke="url(#paint15_linear_464_10698)" stroke-width="0.5" stroke-linecap="round" stroke-linejoin="round"/>
<path d="M926.353 210.894C930.129 207.191 933.581 203.171 936.668 198.881C952.94 175.189 944.914 144.469 935.835 120.03C926.757 95.5917 909.544 74.3129 888.534 59.1752C874.302 48.9228 857.994 40.7984 840.365 39.2072C822.735 37.6161 803.699 43.3407 791.967 56.8386C779.199 71.5249 772.731 94.7519 780.055 112.693C784.147 122.676 787.041 133.128 790.834 143.054C794.268 152.049 798.439 159.695 799.863 169.46C802.401 187.636 798.383 206.206 790.948 223.098C785.11 236.374 774.876 246.505 765.641 257.252C745.454 280.835 718.849 292.005 691.467 304.259C680.91 308.992 653.263 315.941 650.286 329.106C648.892 335.271 651.3 341.675 655.047 346.638C658.794 351.602 663.817 355.408 668.388 359.615C684.832 374.47 696.904 393.542 703.354 414.859C709.069 433.849 703.232 456.647 686.966 469.399C681.818 473.443 675.737 476.519 671.778 481.735C666.545 488.665 665.951 497.749 663.091 505.906C657.225 522.35 642.213 533.576 628.992 545.099C613.15 559.057 606.365 575.469 598.086 594.122C590.221 611.869 584.777 636.295 590.521 654.967C595.34 670.524 610.376 683.18 626.668 681.643C638.136 680.601 648.157 673.194 656.512 665.111C672.922 648.954 690.859 634.429 710.058 621.752C720.796 614.783 731.198 605.706 742.735 600.163C752.968 595.244 764.327 590.201 775.243 587.146C784.264 584.612 793.237 583.924 799.924 576.049C809.551 564.826 806.313 555.94 804.798 543.635C803.271 531.578 810.375 514.286 819.503 506.212C834.556 492.959 853.977 492.503 871.664 486.193C894.205 478.152 897.794 446.92 891.723 427.591C886.471 410.888 876.032 396.487 868.347 380.792C864.429 372.825 862.087 361.396 869.566 356.294C876.465 351.586 885.355 356.619 892.383 360.814C900.332 365.566 909.279 369.387 918.644 368.952C919.581 368.899 920.483 368.811 921.455 368.74C952.803 365.458 933.257 332.028 923.959 316.996C908.506 292.056 889.24 260.435 908.187 231.182C913.17 223.618 919.957 217.426 926.353 210.894Z" stroke="url(#paint16_linear_464_10698)" stroke-width="0.5" stroke-linecap="round" stroke-linejoin="round"/>
<path d="M943.054 934.243C938.784 937.514 934.794 941.14 931.13 945.081C919.922 957.018 907.508 967.853 892.496 974.648C873.788 983.168 850.991 984.402 833.643 974.074C815.681 963.375 804.32 936.55 818.444 918.267C823.526 911.69 829.52 905.781 833.784 898.665C841.316 886.04 842.804 870.968 847.378 857.072C853.724 837.788 866.001 820.995 878.246 804.692C890.491 788.388 903.1 771.909 910.258 752.899C916.007 737.658 917.362 721.481 913.059 705.953C908.484 689.423 897.924 681.73 889.415 667.453C876.77 646.276 879.277 620.303 885.163 596.997C891.975 570.048 900.931 546.337 928.159 534C940.132 528.597 953.084 525.493 965.142 520.176C981.922 512.785 994.507 499.776 1000.65 482.478C1005.7 468.293 1000.62 440.193 1012.49 430.3C1020.96 423.238 1034.64 424.935 1040 434.482C1045.36 444.03 1043.9 456.851 1041.34 467.1C1038.72 477.521 1034.76 487.881 1035 498.569C1035.59 525.399 1076.88 549.276 1097.48 559.309C1117.43 569.04 1138.38 578.614 1161.26 576.28C1175.82 574.798 1190.3 571.015 1204.88 572.092C1225.52 573.623 1241.9 593.795 1236.65 614.895C1231.13 637.003 1202.01 658.457 1183.17 668.37C1159.26 680.952 1132.71 685.415 1112.4 705.015C1098.52 718.417 1087.62 740.863 1088.49 760.166C1089.47 781.881 1103.83 804.25 1110.67 824.377C1114.81 836.584 1126.6 869.003 1105.84 873.76C1099.37 875.235 1092.7 873.972 1086.12 873.593C1056.49 871.866 1026.21 890.018 1013.46 917.165C1009.62 925.342 1005.68 935.581 996.857 937.168C985.541 939.162 978.663 925.682 967.171 925.119C958.796 924.529 950.331 928.783 943.054 934.243Z" stroke="url(#paint17_linear_464_10698)" stroke-width="2" stroke-linecap="round" stroke-linejoin="round"/>
<path d="M725.164 -1.1373C739.286 -52.8176 635.885 -44.0573 610.463 -35.6655C596.067 -30.9478 583.567 -23.8474 570.514 -16.3971C539.687 1.22013 504.727 13.8184 472.448 28.5584C456.597 35.8006 439.076 44.9514 433.869 61.5169C429.498 75.6168 435.791 90.6497 444.268 102.428C463.547 129.265 500.515 165.817 478.984 202.391C467.334 222.191 443.437 221.248 424.141 216.739C414.737 214.529 405.377 211.511 395.655 211.624C362.416 212.025 356.827 252.013 363.438 276.712C369.892 300.82 387.123 324.95 410.792 334.492C426.794 340.903 448.961 335.528 455.315 319.207C461.316 303.766 453.528 286.595 456.563 270.638C460.239 251.308 481.297 241.507 499.514 239.793C516.57 238.205 533.463 242.621 549.554 248.026C584.601 259.824 623.08 276.375 660.667 265.309C680.71 259.392 707.514 245.085 718.272 225.956C728.075 208.513 726.693 181.658 722.269 163.177C720.393 155.341 716.224 148.322 713.418 140.634C707.262 123.38 704.274 105.091 704.596 86.6339C704.922 60.6354 711.146 34.7835 720.942 10.4704C722.572 6.68141 723.982 2.80561 725.164 -1.1373V-1.1373Z" stroke="url(#paint18_linear_464_10698)" stroke-width="2" stroke-linecap="round" stroke-linejoin="round"/>
<path d="M1470.7 363.982C1468.49 345.811 1463.69 327.901 1457.8 310.665C1445.7 275.218 1424.94 239.132 1402.15 209.545C1378.19 178.459 1344.71 158.322 1309.7 140.967C1285.62 129.051 1259.86 121.379 1236.63 107.967C1195.63 84.344 1152.16 59.9935 1124.96 20.6244C1110.14 -0.870932 1097.58 -20.3744 1070.54 -28.0914C1060.14 -31.1332 1049.14 -31.7752 1038.34 -29.9695C1027.44 -28.0315 1020.62 -22.903 1011.23 -17.642C993.159 -7.54273 972.128 -4.45541 952.243 -8.98268C935.453 -13.1455 920.483 -22.4339 909.389 -35.573C901.398 -44.9013 888.225 -62.7144 890.928 -75.9277C892.503 -83.6833 898.824 -89.6989 905.563 -93.959C912.302 -98.219 919.741 -101.345 925.956 -106.32C930.43 -109.951 934.128 -114.45 936.817 -119.535C939.506 -124.62 941.129 -130.181 941.583 -135.871C942.562 -149.279 936.948 -160.558 927.23 -169.059C918.167 -176.975 908.58 -186.319 908.162 -199.23C907.71 -213.584 919.774 -226.124 933.233 -231.5C946.692 -236.877 961.471 -236.868 975.849 -237.815C990.227 -238.763 1005.35 -241.05 1016.86 -249.96C1043.76 -270.932 1041.11 -313.926 1021.99 -337.844C1001.1 -363.941 962.847 -367.098 935.072 -383.265C914.685 -395.138 896.819 -413.404 891.366 -436.493C887.053 -454.829 889.757 -477.059 875.809 -489.548C864.096 -500.027 835.623 -501.063 822.33 -491.489C805.046 -479.061 796.35 -450.398 794.421 -430.59C791.818 -403.775 801.873 -378.377 809.778 -353.495C816.149 -333.368 820.404 -312.587 822.476 -291.485C826.088 -254.754 811.658 -221.869 787.663 -193.51C784.302 -189.538 780.786 -185.71 777.114 -182.027C763.447 -168.36 746.838 -154.197 729.569 -145.332C711.575 -136.099 687.977 -133.928 668.096 -129.465C661.32 -127.935 654.406 -126.352 648.456 -122.711C636.286 -115.245 630.564 -100.864 625.644 -87.5046C620.909 -74.6543 621.305 -65.0665 635.232 -61.1139C647.575 -57.6154 660.862 -59.3061 673.538 -57.8725C692.466 -55.7295 710.394 -46.5761 729.489 -47.7242C746.513 -48.7539 762.007 -57.8296 778.034 -64.009C805.992 -74.8175 832.99 -66.5675 857.571 -52.6561C906.722 -24.8075 951.693 14.8458 987.992 58.0258C1000.98 73.4795 1013.49 91.0512 1020.52 110.206C1028 130.593 1031.9 150.291 1046.7 167.226C1060.94 183.55 1080.09 192.397 1100.83 197.851C1116.09 201.866 1132.41 203.953 1146.49 211.33C1159.19 217.959 1165.72 235.162 1166.31 249.239C1168.04 289.555 1128.18 323.026 1095.34 339.74C1045.92 364.931 1052.5 401.782 1054.62 450.406C1056.18 486.001 1073.06 522.149 1102.03 542.992C1116.32 553.452 1133.62 559.118 1151.52 559.2C1178.25 559.072 1194.01 542.968 1216.88 532.467C1240.93 521.421 1268.16 517.911 1294.16 516.984C1319.81 516.078 1345.59 517.12 1370.98 512.953C1388.51 510.063 1406 504.528 1421.14 494.701C1445.71 478.787 1461.63 444.33 1468.23 416.876C1472.49 399.326 1472.8 381.52 1470.7 363.982Z" stroke="url(#paint19_linear_464_10698)" stroke-width="2" stroke-linecap="round" stroke-linejoin="round"/>
<path d="M681.747 -3.56426C679.642 -7.48793 676.353 -10.6312 672.336 -12.5585C656.003 -20.8286 630.921 -15.8672 614.268 -10.5222C593.548 -3.94513 574.426 6.97607 554.831 16.4513C542.689 22.3281 530.192 27.7281 517.159 31.1505C505.892 34.0974 497.368 34.5395 487.615 41.0671C470.894 52.2697 454.065 66.127 461.762 88.1941C465.901 100.152 476.646 108.169 485.387 117.205C497.543 129.804 506.407 145.225 511.223 162.155C515.3 176.483 510.278 192.643 517.244 205.865C518.406 208.031 519.762 210.085 521.296 212.001C530.733 223.889 544.881 230.965 558.985 236.71C576.673 243.911 594.981 249.569 613.707 253.623C634.232 258.074 656.405 255.07 671.754 238.482C686.676 222.422 683.305 195.299 684.916 175.537C686.946 150.704 673.514 135.17 662.181 114.158C653.538 98.1472 647.605 78.7305 654.484 61.5616C659.118 49.9835 668.837 41.2663 676.134 31.083C683.431 20.8996 687.099 6.70482 681.747 -3.56426Z" stroke="url(#paint20_linear_464_10698)" stroke-width="0.5" stroke-linecap="round" stroke-linejoin="round"/>
<path d="M925.385 12.1527C947.521 31.0559 970.543 49.7515 988.794 72.5383C1000.49 87.1395 1010.68 103.407 1017.03 121.153C1020.37 130.182 1022.35 139.685 1022.9 149.356C1023.25 157.209 1025.62 168.251 1023.47 175.747C1021.51 182.477 1013.49 188.77 1009.15 194.299C1003.85 201.043 997.075 206.484 989.36 210.183C973.047 218.006 954.848 225.661 944.778 241.656C937.596 253.032 936.119 267.193 938.14 280.3C939.977 292.233 944.959 302.583 949.081 313.725C952.787 323.756 959.318 330.774 966.023 339.13L966.616 339.878C974.524 349.743 981.17 360.568 986.407 372.111C991.204 382.799 990.802 394.525 997.999 404.155C999.691 406.42 1001.69 408.612 1002.35 411.387C1003.53 416.389 1000.23 421.03 998.901 425.682C997.513 430.619 997.177 435.896 996.527 440.91C994.943 453.835 992.568 466.942 986.737 478.783C977.836 497.005 961.404 510.789 943.373 520.144C925.343 529.498 904.089 531.633 886.532 540.921C870.755 549.262 856.345 562.619 843.773 575.19C837.839 581.124 831.944 588.174 831.582 596.482C831.076 608.348 841.65 616.976 849.085 626.045C854.827 633.158 859.071 641.374 861.57 650.215C864.07 659.057 864.776 668.348 863.648 677.548C861.211 697.388 852.561 710.997 836.34 723.533C810.917 743.166 784.08 746.928 753.799 740.348C738.483 736.987 727.002 728.772 713.127 723.29C687.131 713.054 654.4 714.102 628.825 726.094C616.322 731.923 605.609 739.003 592.89 744.319C577.538 750.723 562.321 757.451 547.161 764.325C528.445 772.854 507.438 783.401 486.371 789.459C477.914 791.995 469.224 793.59 460.459 794.215C443.633 795.217 425.281 790.036 413.693 777.614C402.216 765.321 404.349 743.526 402.782 727.537C400.011 699.067 387.984 677.814 359.894 668.89C319.475 656.046 287.304 681.442 254.247 701.747C239.699 710.651 223.547 716.516 206.791 718.981C192.65 720.913 178.35 718.099 164.777 714.795C135.549 707.704 107.973 689.997 92.1679 664.288C63.0787 616.972 71.6806 551.065 98.7465 503.692C107.669 488.08 117.712 480.329 136.013 479.448C145.104 479 154.248 479.89 163.272 478.592C187.787 475.08 208.579 463.083 223.089 442.546C235.407 425.134 242.206 404.514 247.176 383.906C252.272 362.833 258.309 341.99 264.355 321.155C268.586 306.568 269.778 277.665 288.054 273.804C296.043 272.115 304.25 274.587 311.589 277.895C333.382 287.716 350.347 310.449 366.933 327.244C385.412 345.949 401.548 368.254 420.872 385.91C433.619 397.545 451.121 398.279 462.793 384.009C469.806 375.383 471.35 363.686 473.973 352.895C479.32 330.875 486.773 302.742 503.025 285.997C515.679 273.021 535.612 263.937 553.337 267.639C573.436 271.821 591.647 278.043 612.582 278.943C648.64 280.561 684.728 272.935 717.426 256.787C743.572 243.698 771.51 213.773 765.396 182.533C759.575 152.698 726.839 143.75 716.572 115.899C711.176 101.277 712.352 84.9896 714.208 69.3473C716.407 50.6953 719.672 31.945 725.676 14.0048C730.959 -1.75443 739.643 -23.5128 753.793 -33.6551C806.701 -71.5366 883.567 -23.7756 922.919 10.0344C923.752 10.8148 924.569 11.4407 925.385 12.1527Z" stroke="url(#paint21_linear_464_10698)" stroke-width="0.5" stroke-linecap="round" stroke-linejoin="round"/>
<path d="M731.655 230.859C746.264 216.607 753.571 195.903 744.63 177.389C740.731 169.301 739.858 163.824 733.856 157.04C728.493 150.901 723.987 144.057 720.454 136.688C713.344 121.739 709.506 105.384 709.192 88.6931C708.448 60.1478 716.28 31.8899 726.364 4.94568C728.828 -1.66091 733.52 -10.818 732.469 -18.0195C731.326 -26.113 721.191 -32.6341 714.531 -35.9579C696.884 -44.917 681.45 -44.0002 662.73 -46.3173C644.636 -48.5986 626.308 -49.1512 608.409 -44.4616C599.605 -42.1443 590.172 -39.5878 581.652 -36.4666C558.315 -27.9528 535.471 -12.2569 513.405 -0.666348C492.833 10.1427 469.234 13.0775 449.707 26.3391C435.218 36.1761 423.486 51.9153 422.976 69.2682C422.299 92.9178 440.804 110.867 452.892 129.019C465.478 147.878 474.29 173.84 464.825 196.311C454.899 219.973 420.193 208.36 401.316 205.486C386.915 203.248 369.294 212.039 361.035 224.492C348.154 243.792 342.351 271.837 351.601 293.354C362.822 319.588 387.043 341.585 407.667 360.471C414.711 366.925 423.319 372.648 432.953 372.708C449.69 372.747 461.985 355.902 466.637 339.721C471.29 323.539 471.621 305.991 479.608 291.094C494.44 263.476 521.489 250.282 551.773 255.892C570.394 259.344 587.785 267.421 606.333 271.269C650.222 280.354 699.432 262.302 731.655 230.859Z" stroke="url(#paint22_linear_464_10698)" stroke-width="0.5" stroke-linecap="round" stroke-linejoin="round"/>
<path d="M1390.2 179.385C1373.31 164.048 1354.49 150.979 1334.18 140.495C1310.63 128.384 1286.46 119.972 1263 107.645C1236.66 93.8228 1210.27 79.941 1185.63 63.2909C1160.41 46.2094 1143.92 27.0005 1128.47 0.918024C1106.72 -35.706 1061.11 -47.322 1021.92 -29.5909C1008.9 -23.7039 996.949 -14.8064 983.021 -11.9662C949.82 -5.20201 889.726 -38.0854 909.905 -78.792C915.03 -89.0104 926.163 -94.5406 934.778 -102.12C940.569 -107.28 945.296 -113.522 948.682 -120.479C952.067 -127.436 954.042 -134.968 954.491 -142.632C954.546 -143.672 954.575 -144.72 954.57 -145.751C954.466 -160.161 948.959 -173.884 939.136 -184.208C933.807 -189.763 926.843 -195.058 926.349 -202.833C925.855 -210.607 932.322 -217.295 939.195 -221.264C959.147 -232.727 983.952 -230.043 1005.49 -237.96C1015.61 -241.779 1024.78 -247.848 1032.29 -255.701C1039.8 -263.554 1045.45 -272.983 1048.8 -283.262C1055.35 -303.923 1051.93 -331.269 1037.06 -347.259C1002.87 -383.98 944.349 -381.998 914.039 -423.221C905.836 -434.417 900.068 -447.236 897.093 -460.879C894.41 -473.206 897.01 -483.429 888.104 -493.048C873.922 -508.359 849.141 -516.008 829.252 -506.392C785.261 -485.118 781.249 -435.126 790.753 -393.32C795.714 -371.522 803.75 -350.523 807.806 -328.517C820.503 -259.714 795.262 -186.728 728.34 -155.666C710.218 -147.256 690.819 -142.085 671.238 -139.008C658.213 -136.968 627.525 -140.323 619.513 -126.946C617.138 -122.873 617.725 -117.925 617.955 -113.282C618.223 -106.992 617.504 -100.675 615.824 -94.562C612.952 -83.8802 602.145 -73.8709 612.102 -63.7924C616.491 -59.4033 622.729 -57.4402 628.864 -56.2745C641.974 -53.7809 655.382 -54.7431 668.477 -53.1511C693.853 -50.138 720.425 -32.4797 746.049 -42.0074C763.367 -48.4249 777.724 -61.6612 796.673 -62.0691C818.105 -62.5486 838.41 -53.2079 856.655 -43.2853C893.334 -23.3392 927.455 5.46462 957.599 34.3229C973.211 49.2739 989.909 65.2601 1002.67 83.4987C1016.28 102.947 1020.45 122.401 1025.83 145.234C1032.1 171.792 1058.41 188.388 1082.53 196.869C1105.6 204.984 1140.82 213.371 1147.78 240.96C1151.89 257.229 1144.94 274.853 1134.11 288.1C1112.16 314.933 1067.11 328.592 1057.28 364.319C1054.58 374.131 1053.44 384.51 1048.52 393.446C1045.91 398.217 1042.16 402.726 1041.61 408.074C1040.93 414.093 1044.34 419.601 1047.06 424.928C1056.98 444.299 1045.6 462.722 1049.01 482.185C1053.12 504.548 1065 524.572 1082.56 538.759C1105.18 557.056 1145.26 571.432 1174.85 563.284C1186.41 560.11 1196.58 553.192 1207.09 547.359C1230.44 534.382 1257.21 529.285 1283.33 532.841C1317.22 537.522 1351.9 534.866 1385.01 525.054C1400.49 520.513 1416.65 515.912 1428.47 504.809L1430.74 502.636C1456.17 477.816 1474.72 445.827 1481.88 411.188C1490.1 371.487 1478.8 339.852 1467.75 302.855C1453.49 255.296 1426.69 212.71 1390.1 179.515L1390.2 179.385Z" stroke="url(#paint23_linear_464_10698)" stroke-width="0.5" stroke-linecap="round" stroke-linejoin="round"/>
<path d="M558.377 146.599C565.974 146.097 573.21 142.922 578.799 137.638C586.709 130.17 590.619 119.484 593.505 109.06C596.632 97.7825 598.916 86.6695 599.179 75.0474C599.338 65.7881 602.869 56.7389 602.323 47.5049C601.806 38.7 596.441 29.6161 587.831 27.8006C577.354 25.5428 567.868 34.1799 559.339 41.0112C547.464 50.6105 533.908 57.8833 519.408 62.435C513.435 64.316 507.218 65.7618 501.839 69.0185C496.46 72.2753 491.938 77.9009 492.012 84.1261C492.09 90.0592 496.163 95.0015 500.028 99.4224C507.679 108.174 515.335 116.93 522.997 125.693C528.727 132.239 534.609 138.921 542.203 143.161C547.125 145.822 552.734 147.014 558.377 146.599Z" stroke="url(#paint24_linear_464_10698)" stroke-width="2" stroke-linecap="round" stroke-linejoin="round"/>
<path d="M417.782 236.375C423.024 241.321 425.069 248.648 426.921 255.626L435.001 286.121C436.343 291.181 437.69 296.49 436.462 301.639C434.389 310.148 425.203 315.819 416.506 315.636C387.77 315.032 372.156 275.091 373.592 251.106C373.964 244.91 375.301 238.463 379.239 233.574C386.977 223.866 409.856 228.9 417.782 236.375Z" stroke="url(#paint25_linear_464_10698)" stroke-width="0.5" stroke-linecap="round" stroke-linejoin="round"/>
<path d="M1004.81 956.682C1009.45 955.787 1012.91 951.642 1014.61 947.243C1016.31 942.843 1016.62 938.048 1017.43 933.418C1019.73 920.147 1026.13 907.84 1035.73 898.242C1045.33 888.644 1057.64 882.242 1070.91 879.944C1078.09 878.654 1085.41 878.595 1092.56 879.771C1100.92 881.177 1109.67 884.193 1117.69 881.129C1141.38 872.053 1129.97 836.744 1122.57 820.487C1112.88 799.224 1095.32 779.822 1095.17 755.151C1095.04 735.092 1107.53 716.304 1123.67 704.018C1148.85 684.842 1181.21 677.702 1207.41 659.322C1227.1 645.492 1246.76 630.279 1261.79 611.178C1268.91 602.122 1275.26 592.018 1277.19 580.763C1281.75 554.037 1261.74 537.995 1237.08 543.828C1215.8 548.857 1197.49 563.04 1176.11 567.444C1143.06 574.172 1109.46 560.932 1081.66 542.712C1063.54 530.847 1045.73 514.771 1042.77 493.147C1041.17 481.418 1044.18 469.532 1045.89 457.764C1047.61 445.997 1047.75 433.139 1041.23 423.373C1031.61 408.92 1012.34 410.533 1004.48 425.738C997.122 439.976 998.954 456.005 995.784 471.044C992.495 486.609 983.866 499.092 971.113 508.788C956.783 519.723 939.723 527.563 922.781 532.671C906.554 537.573 895.369 552 887.701 566.782C875.905 589.547 864.084 624.103 870.557 649.568C872.8 658.361 878.226 669.609 884.766 675.939C896.187 687.083 904.811 695.863 907.839 712.497C917.732 766.733 859.192 808.991 841.486 856.393C834.211 875.842 831.204 898.239 816.088 912.558C811.208 917.183 805.294 920.686 800.856 925.735C782.216 946.956 816.569 969.772 832.006 978.241C859.271 993.203 894.827 989.942 918.086 967.276C924.922 960.611 930.372 952.664 936.817 945.608C943.262 938.552 951.09 932.201 960.354 930.153C971.383 927.733 978.722 932.449 984.717 940.615C989.362 947.311 994.633 958.68 1004.81 956.682Z" stroke="url(#paint26_linear_464_10698)" stroke-width="0.5" stroke-linecap="round" stroke-linejoin="round"/>
<path d="M622.227 59.5376C625.718 44.3487 634.994 13.6782 611.096 11.3436C585.182 8.81771 565.008 27.6001 542.478 36.8688C524.013 44.4675 504.795 50.2887 487.631 60.4916C482.425 63.5917 477.099 67.5092 475.28 73.2667C472.231 82.9716 480.311 92.0068 487.106 99.2708C499.405 112.417 509.722 127.297 517.742 143.461C524.708 157.481 528.044 174.249 537.058 187.103C547.797 202.394 569.191 209.627 587.364 208.738C596.125 208.262 604.746 206.056 612.727 202.247C620.708 198.439 627.893 193.105 633.865 186.552C647.052 171.938 648.217 155.831 640.503 138.942C634.816 126.513 626.594 116.449 622.998 102.879C619.239 88.7875 618.975 73.9156 622.227 59.5376V59.5376Z" stroke="url(#paint27_linear_464_10698)" stroke-width="0.5" stroke-linecap="round" stroke-linejoin="round"/>
<path d="M592.647 340.103C598.265 338.51 605.59 335.531 604.901 329.768C604.518 326.483 601.4 324.321 598.41 322.964C579.497 314.337 555.809 322.065 540.517 336.712C525.225 351.359 516.635 371.647 510.159 391.74C508.971 394.756 508.394 397.966 508.462 401.18C508.709 404.329 510.534 407.597 513.554 408.601C518.277 410.161 522.903 405.926 526.184 402.118C538.012 388.473 551.327 376.262 562.15 361.907C570.785 350.386 577.957 344.283 592.647 340.103Z" stroke="url(#paint28_linear_464_10698)" stroke-width="0.5" stroke-linecap="round" stroke-linejoin="round" stroke-dasharray="8 3"/>
<path d="M395.265 281.746L407.715 269.296" stroke="url(#paint29_linear_464_10698)" stroke-width="0.5" stroke-linecap="round" stroke-linejoin="round"/>
<path d="M395.408 269.43L407.573 281.595" stroke="url(#paint30_linear_464_10698)" stroke-width="0.5" stroke-linecap="round" stroke-linejoin="round"/>
<path d="M532.998 109.63L545.448 97.1801" stroke="url(#paint31_linear_464_10698)" stroke-width="0.5" stroke-linecap="round" stroke-linejoin="round"/>
<path d="M533.132 97.3223L545.298 109.488" stroke="url(#paint32_linear_464_10698)" stroke-width="0.5" stroke-linecap="round" stroke-linejoin="round"/>
<path d="M818.173 -234.19C823.827 -245.511 828.329 -257.351 831.608 -269.528C838.116 -293.949 838.941 -320.022 832.902 -344.342C826.862 -368.661 813.246 -390.513 807.398 -415.11C802.788 -434.49 809.325 -465.936 835.28 -465.42C852.382 -465.085 862.648 -447.574 871.758 -433.286C889.284 -405.866 913.542 -383.466 942.291 -368.156C959.319 -359.121 977.964 -352.535 992.834 -340.307C1007.7 -328.078 1018.29 -307.899 1012.14 -289.27C1004.24 -265.305 975.22 -256.966 950.867 -250.442C926.515 -243.917 897.899 -229.597 897.394 -204.524C896.775 -173.971 947.702 -152.618 927.622 -121.943C921.546 -112.658 911.771 -106.517 902.445 -100.569C893.119 -94.6219 882.802 -86.9027 881.627 -75.897C880.92 -70.0042 881.403 -64.0566 883.048 -58.4088C884.692 -52.7609 887.465 -47.5283 891.2 -43.0225C897.849 -35.0012 906.643 -29.1086 915.45 -23.5167C941.758 -6.81716 967.659 7.21639 999.931 -4.59517C1017.64 -11.0773 1033.43 -24.2272 1052.14 -25.491C1075.16 -27.0366 1092 -11.0176 1106.26 4.30968C1122.03 21.2083 1132.74 42.0299 1148.09 59.5173C1170.76 85.3447 1201.85 103.715 1232.58 118.569C1264.94 134.211 1299.78 141.735 1329.35 162.725C1398.86 212.065 1430.15 303.66 1431.06 387.215C1431.35 411.833 1424.43 438.114 1406.08 454.986C1381.28 477.797 1346.37 474.319 1315.77 479.791C1298.74 482.83 1281.69 481.988 1264.73 486.332C1247.75 490.651 1231.58 497.866 1216.95 507.657C1202.27 517.531 1188.96 530.059 1172.29 535.98C1154.85 542.133 1135.3 540.065 1118.7 532.571C1100.95 524.567 1085.68 510.668 1074.69 494.745C1062.21 476.657 1058.45 453.746 1057.75 431.538C1057.26 415.055 1058.33 397.988 1065.31 382.845C1078.22 354.786 1107.21 339.242 1130.36 320.726C1150.83 304.319 1173.87 276.366 1173.62 248.76C1173.53 242.42 1172.18 236.19 1169.64 230.433C1167.11 224.677 1163.44 219.51 1158.86 215.233C1140.54 198.303 1113.25 197.433 1090.39 188.749C1056.86 175.946 1045.18 150.49 1031.94 119.418C1020.68 93.0931 1006.46 68.1869 989.557 45.1697C982.176 35.1302 974.417 23.6522 965.517 15.03C955.003 4.84635 940.293 -2.68672 928.22 -10.9545C894.412 -34.1456 859.978 -56.6081 823.58 -75.63C806.832 -84.3504 785.778 -83.8925 767.259 -79.0756C750.67 -74.8134 736.904 -59.2138 718.813 -60.9713C711.325 -61.7006 704.62 -65.5735 698.223 -69.3984C692.432 -72.8095 686.66 -76.5128 680.183 -78.5247C674.184 -80.3705 667.304 -80.2652 662.452 -84.7348C655.748 -90.9177 657.663 -102.765 663.977 -109.622C670.291 -116.479 679.55 -119.626 688.385 -122.502C707.496 -128.709 725.47 -133.931 742.794 -144.548C764.779 -158.045 780.54 -177.609 795.849 -198.147C804.362 -209.478 811.835 -221.543 818.173 -234.19V-234.19Z" stroke="url(#paint33_linear_464_10698)" stroke-width="0.5" stroke-linecap="round" stroke-linejoin="round"/>
<path d="M554.054 135.777C560.144 134.916 565.833 129.329 570.321 116.232C572.49 109.921 574.565 103.499 575.053 96.8638C575.542 90.2285 574.343 83.3122 570.462 78.0242C559.75 63.4373 502.498 61.0931 505.658 87.1029C506.379 93.0372 510.169 98.0086 513.833 102.698C524.158 115.89 540.273 137.756 554.054 135.777Z" stroke="url(#paint34_linear_464_10698)" stroke-width="0.5" stroke-linecap="round" stroke-linejoin="round" stroke-dasharray="8 3 4 3"/>
<path d="M534.262 118.452C537.408 121.945 541.904 125.208 547.64 123.021C552.091 121.338 555.846 116.649 557.28 112.192C557.993 109.957 558.276 107.616 558.116 105.295C557.977 103.447 557.62 101.627 557.053 99.8715C554.767 92.5985 539.044 71.019 527.865 84.9141C519.581 95.1003 529.564 113.268 534.262 118.452Z" stroke="url(#paint35_linear_464_10698)" stroke-width="0.5" stroke-linecap="round" stroke-linejoin="round"/>
<path d="M423.854 299.51C424.571 296.959 423.795 294.238 422.956 291.783C419.691 281.567 417.239 261.843 408.058 255.2C398.878 248.556 389.168 254.954 386.968 264.761C384.696 274.912 388.767 288.21 395.006 296.047C399.983 302.31 419.931 313.501 423.854 299.51Z" stroke="url(#paint36_linear_464_10698)" stroke-width="0.5" stroke-linecap="round" stroke-linejoin="round" stroke-dasharray="8 3 4 3"/>
<path d="M446.072 284.508C447.235 295.315 448.819 309.844 439.987 318.388C432.562 325.558 416.697 325.14 407.296 322.673C383.769 316.487 369.082 283.242 367.817 261.126C367.11 249.489 369.411 236.848 377.582 228.32C389.882 215.477 413.448 222.779 427.588 228.301C434.624 231.045 441.04 236.209 443.465 243.36C447.407 255.191 444.7 271.754 446.072 284.508Z" stroke="url(#paint37_linear_464_10698)" stroke-width="0.5" stroke-linecap="round" stroke-linejoin="round"/>
<path d="M55.5729 595.443C53.418 612.062 53.1724 628.828 54.841 645.414C56.0039 657.003 56.7569 671.361 46.7742 677.643C38.7204 682.725 28.3876 679.169 19.7823 675.498L-53.9661 644.095C-74.2961 635.442 -102.579 629.07 -117.272 611.979C-134.72 591.716 -133.599 560.066 -121.491 535.598C-112.047 516.493 -96.6642 499.921 -91.7968 479.263C-88.3837 464.814 -90.8305 449.891 -97.2216 436.671C-102.656 425.533 -110.61 415.855 -120.468 408.386C-142.637 391.69 -165.626 392.42 -191.304 386.585C-215.99 381.013 -241.806 375.231 -266.171 367.981C-272.736 366.056 -279.62 363.603 -284.164 358.468C-288.707 353.334 -289.99 344.666 -285.157 339.595C-280.323 334.524 -271.976 335.278 -264.942 335.918C-240.013 338.129 -214.839 332.412 -192.995 319.578C-180.924 312.431 -170.048 303.202 -157.415 297.139C-144.462 290.978 -131.812 290.214 -118.367 294.155C-104.604 298.187 -97.0619 309.117 -86.5014 318.236C-71.684 330.823 -52.3508 336.92 -32.7241 335.193C-13.1246 333.281 5.17339 323.956 18.4157 309.132C26.4986 300.047 32.3939 289.279 39.8047 279.644C47.2155 270.009 56.8155 261.173 68.619 258.589C100.784 251.553 124.281 310.098 129.797 334.449C135.68 360.419 135.577 394.565 122.653 419.103C108.701 445.619 96.6624 473.737 84.3719 501.377C70.4241 532.728 59.6546 563.261 55.5729 595.443Z" stroke="url(#paint38_linear_464_10698)" stroke-width="2" stroke-linecap="round" stroke-linejoin="round"/>
<path d="M263.891 255.079C259.62 258.35 255.631 261.976 251.966 265.917C240.759 277.855 228.345 288.69 213.332 295.484C194.624 304.004 171.827 305.238 154.479 294.91C136.517 284.211 125.157 257.386 139.28 239.103C144.362 232.526 150.356 226.618 154.62 219.501C162.152 206.876 163.64 191.804 168.214 177.908C174.56 158.624 186.837 141.831 199.082 125.528C211.328 109.224 223.936 92.7451 231.094 73.7353C236.844 58.4945 238.198 42.3169 233.895 26.7887C229.32 10.2588 218.76 2.56605 210.252 -11.7113C197.606 -32.8883 200.113 -58.8604 205.999 -82.1666C212.811 -109.116 221.767 -132.827 248.995 -145.164C260.968 -150.567 273.92 -153.671 285.979 -158.988C302.758 -166.378 315.343 -179.388 321.486 -196.686C326.536 -210.871 321.459 -238.971 333.321 -248.864C341.793 -255.926 355.479 -254.229 360.839 -244.682C366.199 -235.134 364.737 -222.313 362.18 -212.064C359.552 -201.643 355.594 -191.283 355.839 -180.594C356.431 -153.765 397.719 -129.887 418.317 -119.855C438.265 -110.123 459.22 -100.55 482.099 -102.884C496.655 -104.366 511.134 -108.149 525.712 -107.072C546.356 -105.541 562.74 -85.3693 557.481 -64.2689C551.962 -42.1606 522.851 -20.7073 504.007 -10.7941C480.099 1.78813 453.546 6.25129 433.233 25.8511C419.356 39.2535 408.456 61.6987 409.324 81.0022C410.31 102.718 424.667 125.086 431.502 145.213C435.647 157.42 447.441 189.84 426.672 194.597C420.206 196.071 413.539 194.808 406.957 194.429C377.324 192.702 347.049 210.854 334.3 238.001C330.453 246.178 326.513 256.417 317.65 257.962C306.335 259.956 299.457 246.476 287.965 245.913C279.632 245.365 271.167 249.619 263.891 255.079Z" stroke="url(#paint39_linear_464_10698)" stroke-width="2" stroke-linecap="round" stroke-linejoin="round"/>
<path d="M791.533 -315.181C789.33 -333.353 784.522 -351.263 778.632 -368.499C766.538 -403.946 745.778 -440.032 722.985 -469.619C699.024 -500.704 665.541 -520.842 630.533 -538.197C606.453 -550.113 580.693 -557.785 557.464 -571.196C516.465 -594.82 473.001 -619.17 445.795 -658.539C430.972 -680.035 418.419 -699.538 391.38 -707.255C380.98 -710.297 369.974 -710.939 359.181 -709.133C348.278 -707.195 341.451 -702.067 332.064 -696.806C313.995 -686.706 292.964 -683.619 273.079 -688.146C256.289 -692.309 241.319 -701.598 230.225 -714.737C222.234 -724.065 209.061 -741.878 211.764 -755.091C213.339 -762.847 219.66 -768.863 226.399 -773.123C233.138 -777.383 240.577 -780.509 246.792 -785.484C251.266 -789.115 254.964 -793.614 257.653 -798.699C260.342 -803.783 261.965 -809.345 262.419 -815.034C263.398 -828.442 257.784 -839.722 248.066 -848.223C239.003 -856.139 229.416 -865.483 228.998 -878.394C228.546 -892.747 240.61 -905.287 254.069 -910.664C267.528 -916.041 282.307 -916.031 296.685 -916.979C311.063 -917.926 326.187 -920.214 337.694 -929.123C364.592 -950.096 361.946 -993.089 342.823 -1017.01C321.939 -1043.11 283.683 -1046.26 255.908 -1062.43C235.521 -1074.3 217.655 -1092.57 212.202 -1115.66C207.889 -1133.99 210.593 -1156.22 196.645 -1168.71C184.932 -1179.19 156.459 -1180.23 143.166 -1170.65C125.882 -1158.22 117.186 -1129.56 115.257 -1109.75C112.654 -1082.94 122.709 -1057.54 130.614 -1032.66C136.985 -1012.53 141.24 -991.751 143.312 -970.648C146.924 -933.918 132.494 -901.032 108.499 -872.674C105.138 -868.702 101.622 -864.874 97.9496 -861.19C84.2834 -847.524 67.6745 -833.36 50.4054 -824.496C32.4107 -815.262 8.81254 -813.092 -11.0679 -808.628C-17.844 -807.099 -24.7581 -805.516 -30.7085 -801.875C-42.8775 -794.409 -48.5999 -780.027 -53.5203 -766.668C-58.2546 -753.818 -57.8587 -744.23 -43.9323 -740.278C-31.5894 -736.779 -18.3019 -738.47 -5.62598 -737.036C13.3022 -734.893 31.2304 -725.74 50.3254 -726.888C67.3494 -727.917 82.8432 -736.993 98.8704 -743.173C126.828 -753.981 153.826 -745.731 178.407 -731.82C227.558 -703.971 272.529 -664.318 308.828 -621.138C321.814 -605.684 334.329 -588.112 341.356 -568.957C348.832 -548.571 352.735 -528.873 367.534 -511.937C381.772 -495.614 400.924 -486.766 421.668 -481.312C436.925 -477.298 453.243 -475.211 467.328 -467.833C480.021 -461.204 486.555 -444.002 487.148 -429.925C488.872 -389.609 449.017 -356.137 416.173 -339.424C366.752 -314.232 373.334 -277.382 375.46 -228.757C377.016 -193.162 393.893 -157.014 422.868 -136.172C437.154 -125.712 454.453 -120.045 472.351 -119.964C499.086 -120.092 514.85 -136.196 537.712 -146.696C561.764 -157.743 588.993 -161.252 614.999 -162.18C640.643 -163.086 666.429 -162.044 691.819 -166.21C709.345 -169.101 726.833 -174.636 741.975 -184.463C766.548 -200.377 782.464 -234.834 789.067 -262.287C793.323 -279.838 793.641 -297.644 791.533 -315.181Z" stroke="url(#paint40_linear_464_10698)" stroke-width="2" stroke-linecap="round" stroke-linejoin="round"/>
<path d="M523.109 -72.7856C519.397 -79.5088 513.809 -84.9816 507.009 -88.5553C491.131 -96.7706 471.821 -93.3529 453.826 -94.4933C441.606 -95.2796 430.455 -100.123 418.429 -101.289C410.709 -102.059 403.292 -100.788 395.591 -102.494C373.921 -107.362 354.218 -122.755 342.971 -141.561C337.992 -149.876 331.897 -160.506 322.162 -159.277C315.849 -158.483 311.429 -152.79 306.826 -148.305C291.67 -133.523 269.293 -129.297 251.724 -117.5C229.68 -102.69 216.603 -75.333 219.162 -49.282C222.513 -14.515 247.455 12.6514 245.314 49.3625C244.012 71.2932 234.352 92.0409 222.977 111.074C211.602 130.106 198.385 148.01 188.709 167.873C177.072 191.735 175.514 218.066 161.278 241.64C158.449 246.37 155.154 251.363 155.09 256.912C154.944 262.152 157.807 267.048 161.3 270.924C184.092 296.2 213.543 278.701 233.717 259.258C253.1 240.588 271.034 219.495 300.164 229.859C307.16 232.337 314.111 236.474 321.519 235.263C331.5 233.619 337.329 223.358 343.58 215.291C353.328 202.787 366.895 193.797 382.133 189.744C391.677 187.246 402.69 186.166 408.877 178.417C416.884 168.406 411.88 154.105 408.154 142.074C403.399 126.633 401.364 110.425 402.138 94.1644C402.839 79.5745 402.475 61.3299 409.395 48.0766C422.022 23.9169 443.255 5.25159 468.789 -4.1354C484.13 -9.64556 501.211 -11.8867 513.623 -22.4984C518.624 -26.8555 522.534 -32.3268 525.021 -38.4516C527.508 -44.5763 528.501 -51.1751 527.915 -57.6925C527.354 -63.0194 525.719 -68.1531 523.109 -72.7856V-72.7856Z" stroke="url(#paint41_linear_464_10698)" stroke-width="0.5" stroke-linecap="round" stroke-linejoin="round"/>
<path d="M711.036 -499.779C694.151 -515.115 675.324 -528.184 655.013 -538.669C631.468 -550.78 607.297 -559.191 583.832 -571.518C557.499 -585.341 531.106 -599.223 506.463 -615.873C481.249 -632.954 464.751 -652.163 449.303 -678.246C427.553 -714.87 381.949 -726.486 342.757 -708.754C329.738 -702.868 317.785 -693.97 303.857 -691.13C270.656 -684.366 210.562 -717.249 230.741 -757.956C235.866 -768.174 246.999 -773.704 255.614 -781.283C261.407 -786.438 266.137 -792.675 269.527 -799.628C272.916 -806.581 274.897 -814.109 275.353 -821.77C275.408 -822.81 275.437 -823.858 275.432 -824.889C275.328 -839.3 269.821 -853.023 259.997 -863.346C254.669 -868.901 247.705 -874.196 247.211 -881.971C246.717 -889.746 253.183 -896.433 260.056 -900.402C280.009 -911.865 304.813 -909.181 326.348 -917.098C336.474 -920.917 345.643 -926.986 353.152 -934.839C360.661 -942.692 366.309 -952.121 369.664 -962.4C376.214 -983.061 372.795 -1010.41 357.917 -1026.4C323.733 -1063.12 265.211 -1061.14 234.9 -1102.36C226.698 -1113.55 220.929 -1126.37 217.954 -1140.02C215.271 -1152.34 217.871 -1162.57 208.965 -1172.19C194.784 -1187.5 170.002 -1195.15 150.114 -1185.53C106.123 -1164.26 102.11 -1114.26 111.615 -1072.46C116.575 -1050.66 124.611 -1029.66 128.668 -1007.66C141.364 -938.852 116.124 -865.866 49.202 -834.804C31.0794 -826.394 11.6803 -821.223 -7.90066 -818.146C-20.9259 -816.106 -51.6138 -819.461 -59.626 -806.084C-62.0427 -802.054 -61.4133 -797.063 -61.1835 -792.42C-60.9152 -786.13 -61.6343 -779.813 -63.3149 -773.7C-66.1863 -763.018 -76.9936 -753.009 -67.0368 -742.93C-62.6477 -738.541 -56.4099 -736.578 -50.2746 -735.413C-37.1644 -732.919 -23.7566 -733.881 -10.6616 -732.289C14.7143 -729.276 41.2866 -711.618 66.9105 -721.145C84.2286 -727.563 98.5855 -740.799 117.535 -741.207C138.966 -741.687 159.271 -732.346 177.517 -722.423C214.248 -702.529 248.318 -673.777 278.47 -644.893C294.124 -629.899 310.78 -613.955 323.545 -595.717C337.155 -576.268 341.319 -556.814 346.706 -533.982C352.968 -507.424 379.278 -490.827 403.397 -482.347C426.473 -474.232 461.646 -465.887 468.652 -438.256C472.758 -421.987 465.813 -404.362 454.977 -391.115C433.035 -364.283 387.981 -350.623 378.147 -314.897C375.449 -305.084 374.307 -294.706 369.395 -285.769C366.781 -280.999 363.036 -276.49 362.476 -271.142C361.805 -265.123 365.211 -259.615 367.932 -254.287C377.85 -234.917 366.473 -216.494 369.881 -197.03C373.994 -174.668 385.869 -154.643 403.432 -140.456C426.055 -122.16 466.131 -107.783 495.723 -115.931C507.285 -119.105 517.446 -126.024 527.965 -131.856C551.31 -144.833 578.078 -149.931 604.202 -146.374C638.096 -141.694 672.766 -144.349 705.884 -154.161C721.359 -158.703 737.523 -163.303 749.339 -174.406L751.614 -176.58C777.045 -201.4 795.586 -233.388 802.754 -268.027C810.975 -307.729 799.67 -339.364 788.616 -376.36C774.394 -423.941 747.608 -466.554 711.036 -499.779V-499.779Z" stroke="url(#paint42_linear_464_10698)" stroke-width="0.5" stroke-linecap="round" stroke-linejoin="round"/>
<path d="M80.5984 339.638C78.8728 337.896 76.8565 336.467 74.6359 335.413C66.7857 331.785 56.9326 336.511 51.8427 343.723C45.4954 352.736 39.3022 372.19 39.5705 383.162C39.7514 392.031 41.1593 400.997 39.084 409.66C34.1209 430.431 9.55845 442.48 -11.3032 438.96C-32.1648 435.439 -49.0081 420.09 -60.8213 402.699C-72.4149 385.632 -79.3848 368.254 -96.0998 355.171C-103.989 349.019 -113.399 344.387 -123.5 343.808C-132.683 343.313 -143.328 347.455 -146.016 356.306C-148.033 362.976 -144.726 370.297 -139.643 374.841C-130.583 382.981 -117.114 386.423 -106.94 393.33C-96.921 399.986 -88.5022 408.755 -82.2559 419.04C-57.761 460.407 -97.3495 501.252 -108.349 539.757C-115.213 563.805 -112.037 590.699 -93.1901 607.287C-70.8407 626.978 -41.2082 636.194 -13.1222 644.731C2.21328 649.363 11.918 651.527 22.5713 637.75C33.8359 623.089 31.8681 610.557 33.5691 594.152C35.559 575.03 47.8761 553.273 55.4218 535.675C68.2542 505.728 81.9525 475.899 89.6765 444.354C94.6509 424.098 97.0238 403.048 94.9957 382.358C93.8167 369.937 90.9079 349.67 80.5984 339.638Z" stroke="url(#paint43_linear_464_10698)" stroke-width="0.5" stroke-linecap="round" stroke-linejoin="round" stroke-dasharray="8 3"/>
<path d="M325.651 277.518C330.282 276.623 333.747 272.478 335.447 268.079C337.147 263.679 337.46 258.884 338.269 254.254C340.567 240.983 346.969 228.676 356.567 219.078C366.166 209.48 378.473 203.078 391.744 200.78C398.927 199.49 406.249 199.432 413.395 200.607C421.752 202.013 430.502 205.029 438.524 201.965C462.219 192.889 450.802 157.58 443.407 141.323C433.716 120.061 416.156 100.658 416.003 75.9875C415.874 55.9283 428.362 37.1403 444.503 24.8538C469.689 5.67866 502.044 -1.46222 528.251 -19.8419C547.939 -33.6722 567.6 -48.8848 582.626 -67.9855C589.746 -77.0418 596.098 -87.1455 598.031 -98.4005C602.582 -125.126 582.578 -141.169 557.916 -135.336C536.638 -130.307 518.328 -116.123 496.946 -111.72C463.9 -104.992 430.295 -118.232 402.501 -136.452C384.381 -148.317 366.567 -164.393 363.605 -186.017C362.006 -197.746 365.011 -209.632 366.727 -221.4C368.443 -233.167 368.584 -246.025 362.067 -255.791C352.444 -270.244 333.172 -268.63 325.319 -253.425C317.915 -239.23 319.791 -223.159 316.62 -208.12C313.331 -192.555 304.703 -180.072 291.949 -170.375C277.619 -159.441 260.559 -151.601 243.617 -146.493C227.39 -141.591 216.205 -127.163 208.538 -112.381C196.742 -89.6166 184.921 -55.0608 191.394 -29.596C193.636 -20.8024 199.063 -9.55514 205.602 -3.22432C217.024 7.91928 225.647 16.6993 228.675 33.3329C238.569 87.5697 180.028 129.827 162.322 177.229C155.047 196.679 152.04 219.075 136.924 233.394C132.044 238.019 126.13 241.522 121.692 246.572C103.052 267.792 137.405 290.608 152.842 299.077C180.107 314.04 215.663 310.778 238.922 288.112C245.758 281.447 251.208 273.5 257.653 266.444C264.098 259.388 271.926 253.037 281.19 250.989C292.219 248.569 299.559 253.285 305.553 261.451C310.199 268.147 315.469 279.516 325.651 277.518Z" stroke="url(#paint44_linear_464_10698)" stroke-width="0.5" stroke-linecap="round" stroke-linejoin="round"/>
<path d="M-80.539 309.081C-90.254 299.627 -98.443 288.171 -110.984 283.207C-149.255 268.045 -185.208 310.11 -216.98 323.307C-231.296 329.252 -251.354 330.514 -266.749 330.289C-278.324 330.148 -293.646 326.623 -296.387 343.135C-297.955 352.462 -292.351 361.68 -284.641 367.044C-263.165 382.022 -235.674 381.902 -210.621 386.121C-198.211 388.21 -186.864 392.502 -174.475 394.952C-159.343 397.921 -144.224 401.937 -130.795 409.579C-111.736 420.437 -96.3091 440.191 -96.96 462.337C-97.8181 492.756 -124.835 514.305 -134.154 541.979C-144.995 574.231 -132.923 605.659 -108.346 627.248C-89.7452 643.607 -66.4705 651.591 -45.267 663.429C-21.9559 676.436 4.5667 685.009 28.8511 696.279C37.3589 700.217 46.7931 704.247 55.9429 701.668C67.1691 698.507 73.804 686.167 74.565 674.557C75.326 662.946 71.677 651.738 69.1275 640.501C62.583 611.592 63.2152 581.362 70.9694 552.422C81.2335 514.346 99.8622 479.231 115.967 443.329C123.159 427.29 130.96 410.643 137.049 394.316C143.403 377.282 141.5 353.173 139.616 335.616C137.136 312.458 128.223 289.28 112.352 272.314C99.6696 258.78 80.5535 243.174 60.664 251.399C44.1657 258.219 37.7214 272.643 28.5107 286.438C19.107 300.579 6.31679 312.758 -9.2056 319.842C-29.7187 329.268 -55.131 328.651 -72.9453 315.58C-75.6234 313.59 -78.1604 311.419 -80.539 309.081V309.081Z" stroke="url(#paint45_linear_464_10698)" stroke-width="0.5" stroke-linecap="round" stroke-linejoin="round"/>
<path d="M-88.3814 619.967C-63.8888 634.034 -36.9599 643.117 -9.99502 651.316C5.63982 656.056 26.9659 663.238 36.8401 644.042C42.0496 633.909 41.3887 621.988 41.8974 610.664C43.1356 583.023 53.6177 554.323 63.2596 528.483C80.5763 482.047 110.827 440.013 117.541 390.273C121.298 362.474 116.372 332.389 100.408 309.387C95.1535 301.822 84.8194 287.977 75.5839 285.328C63.7808 281.934 51.1099 294.928 45.0177 303.414C33.0856 320.1 23.0435 336.73 12.6016 354.507C6.11004 365.6 -2.49931 376.4 -14.5381 380.764C-28.2316 385.645 -43.6269 380.988 -55.5036 372.813C-72.3227 361.311 -81.3583 344.334 -96.3981 331.206C-105.47 323.298 -116.598 317.261 -128.614 315.88C-141.315 314.386 -154.23 318.065 -165.635 324.036C-175.285 329.086 -183.098 337.85 -192.635 342.666C-199.718 346.234 -207.68 344.128 -215.095 347.468C-219.429 349.425 -223.13 353.89 -222.411 358.553C-221.524 364.305 -215.064 367.03 -209.51 368.744C-182.512 377.045 -154.197 383.605 -128.491 395.237C-97.0616 409.447 -79.2391 440.388 -88.1252 475.151C-94.7535 501.05 -113.775 521.837 -120.748 547.097C-124.816 561.794 -123.16 575.962 -118.773 590.218C-114.203 604.953 -102.838 611.366 -89.8475 619.022L-88.3814 619.967Z" stroke="url(#paint46_linear_464_10698)" stroke-width="0.5" stroke-linecap="round" stroke-linejoin="round"/>
<path d="M478.434 -27.9918C486.265 -36.1117 497.396 -54.0338 489.7 -64.3703C484.026 -71.9906 472.268 -76.2946 463.534 -79.2423C447.554 -84.6225 422.578 -80.5984 407.148 -74.0825C392.245 -67.8045 380.506 -55.9295 368.223 -45.3451C355.941 -34.7606 341.503 -25.6369 325.207 -22.9754C308.584 -20.2586 292.026 -22.3603 278.137 -10.2372C253.43 11.3283 259.988 58.4073 279.926 80.1699C286.618 87.4693 295.726 95.1702 294.04 105.108C292.475 114.178 282.662 119.135 274.111 122.66C259.529 128.651 244.711 134.962 232.488 144.91C216.545 157.899 188.547 211.569 224.483 218.573C233 220.244 241.417 215.698 249.613 212.426C264.367 206.597 280.312 204.747 295.825 207.066C305.812 208.574 316.321 211.733 325.719 207.734C337.231 202.843 342.17 189.433 350.548 180.087C362.057 167.27 381.368 160.778 387.085 144.619C390.743 134.288 387.531 123.136 385.619 112.466C381.393 88.7617 385.907 68.1852 391.421 45.1152C397.432 19.8496 412.727 7.93362 436.425 -2.89437C451.275 -9.76428 467.013 -16.1463 478.434 -27.9918Z" stroke="url(#paint47_linear_464_10698)" stroke-width="2" stroke-linecap="round" stroke-linejoin="round"/>
<path d="M304.068 -88.7188C295.653 -86.4806 287.651 -82.8211 280.413 -77.8999C264.58 -66.9567 253.728 -49.364 249.913 -30.6247C248.027 -21.0759 248.441 -11.2671 251.12 -2.01604C253.685 7.1345 253.502 14.8226 253.467 24.5012C253.502 48.237 258.892 69.3347 264.355 92.2435C265.928 98.8549 267.246 106.637 262.78 111.919C258.949 116.446 252.414 117.191 246.836 119.068C230.041 124.758 214.073 148.146 204.529 162.529C195.614 175.96 190.379 192.062 187.842 207.944C186.435 216.788 186.953 226.169 191.036 234.005C209.591 269.936 234.742 227.806 254.559 219.11C265.055 214.489 278.93 213.281 290.066 214.166C302.653 215.162 315.466 221.807 328.228 218.044C344.341 213.307 351.297 193.99 364.997 184.076C374.774 177.016 388.373 174.437 394.717 164.205C400.3 155.226 398.078 143.865 396.549 133.508C394.064 116.333 394.121 98.8275 396.72 81.5513C398.505 69.7141 397.801 54.1013 402.233 42.9291C415.633 9.15369 463.031 -2.26581 487.875 -25.3101C496.947 -33.7363 504.808 -45.1628 503.703 -57.3359C502.339 -72.3571 487.927 -82.5988 473.631 -87.1998C450.846 -94.5194 422.709 -94.1256 399.25 -88.4272C377.109 -83.0446 357.663 -91.5965 335.119 -92.212C324.688 -92.5651 314.227 -91.3883 304.068 -88.7188Z" stroke="url(#paint48_linear_464_10698)" stroke-width="0.5" stroke-linecap="round" stroke-linejoin="round"/>
<path d="M120.578 445.542C117.978 451.3 113.339 458.13 112.725 464.483C111.116 481.102 139.077 469.984 148.608 469.35C165.463 468.116 183.052 467.947 197.748 458.022C226.847 438.381 232.979 404.114 244.119 373.482C252.256 350.894 257.558 327.441 259.903 303.671C260.426 298.495 260.487 292.475 256.567 289.162C252.646 285.85 246.416 286.952 242.105 289.939C237.793 292.926 234.771 297.375 231.18 301.203C213.043 320.512 189.135 316.082 166.345 312.215C160.637 311.25 146.486 306.604 142.276 312.003C136.802 319.022 145.513 334.354 145.975 341.94C146.674 353.654 146.296 365.433 144.847 377.128C141.773 402.359 130.556 423.34 120.578 445.542Z" stroke="url(#paint49_linear_464_10698)" stroke-width="0.5" stroke-linecap="round" stroke-linejoin="round"/>
<path d="M223.572 352.414C211.199 322.526 165.55 320.769 155.412 354.678C152.679 363.761 152.86 373.36 151.893 382.766C150.199 399.317 143.052 414.29 135.352 428.935C131.769 435.778 112.797 461.983 126.93 466.612C129.907 467.574 133.18 466.78 136.246 465.989C152.363 461.758 171.588 464.215 186.659 456.75C221.89 439.314 237.95 387.156 223.572 352.414Z" stroke="url(#paint50_linear_464_10698)" stroke-width="2" stroke-linecap="round" stroke-linejoin="round"/>
<path d="M142.381 440.464C139.82 443.637 136.873 447.415 137.902 451.293C138.931 455.172 143.3 456.847 147.216 457.583C155.339 459.112 163.747 458.752 171.796 456.533C179.845 454.314 187.322 450.294 193.655 444.78C199.988 439.267 205.009 432.406 208.333 424.723C211.657 417.041 213.196 408.74 212.832 400.456C212.062 383.144 188.814 350.548 171.075 372.599C164.688 380.582 164.005 393.575 161.329 403.009C157.615 416.601 151.166 429.349 142.381 440.464Z" stroke="url(#paint51_linear_464_10698)" stroke-width="0.5" stroke-linecap="round" stroke-linejoin="round" stroke-dasharray="8 3"/>
<path d="M199.34 423.559C201.959 416.899 202.164 409.631 196.627 404.199C189.282 396.993 178.758 400.335 173.247 408.325C167.736 416.315 149.437 434.749 161.011 443.873C170.508 451.355 186.585 441.645 192.899 434.058C195.589 430.915 197.765 427.369 199.34 423.559V423.559Z" stroke="url(#paint52_linear_464_10698)" stroke-width="0.5" stroke-linecap="round" stroke-linejoin="round"/>
</g>
<defs>
<linearGradient id="paint0_linear_464_10698" x1="178.957" y1="512.778" x2="368.602" y2="367.875" gradientUnits="userSpaceOnUse">
<stop stop-color="#3EE1FC"/>
<stop offset="1" stop-color="#3E82FC"/>
</linearGradient>
<linearGradient id="paint1_linear_464_10698" x1="360.689" y1="567.182" x2="654.531" y2="347.192" gradientUnits="userSpaceOnUse">
<stop stop-color="#3EE1FC"/>
<stop offset="1" stop-color="#3E82FC"/>
</linearGradient>
<linearGradient id="paint2_linear_464_10698" x1="6.3516" y1="568.512" x2="911.587" y2="-108.97" gradientUnits="userSpaceOnUse">
<stop stop-color="#3EE1FC"/>
<stop offset="1" stop-color="#3E82FC"/>
</linearGradient>
<linearGradient id="paint3_linear_464_10698" x1="403.852" y1="459.492" x2="944.397" y2="73.9088" gradientUnits="userSpaceOnUse">
<stop stop-color="#3EE1FC"/>
<stop offset="1" stop-color="#3E82FC"/>
</linearGradient>
<linearGradient id="paint4_linear_464_10698" x1="713.124" y1="454.844" x2="824.191" y2="377.264" gradientUnits="userSpaceOnUse">
<stop stop-color="#3EE1FC"/>
<stop offset="1" stop-color="#3E82FC"/>
</linearGradient>
<linearGradient id="paint5_linear_464_10698" x1="204.649" y1="498.915" x2="365.13" y2="380.913" gradientUnits="userSpaceOnUse">
<stop stop-color="#3EE1FC"/>
<stop offset="1" stop-color="#3E82FC"/>
</linearGradient>
<linearGradient id="paint6_linear_464_10698" x1="239.688" y1="475.849" x2="358.005" y2="394.131" gradientUnits="userSpaceOnUse">
<stop stop-color="#3EE1FC"/>
<stop offset="1" stop-color="#3E82FC"/>
</linearGradient>
<linearGradient id="paint7_linear_464_10698" x1="127.406" y1="533.735" x2="375.606" y2="344.107" gradientUnits="userSpaceOnUse">
<stop stop-color="#3EE1FC"/>
<stop offset="1" stop-color="#3E82FC"/>
</linearGradient>
<linearGradient id="paint8_linear_464_10698" x1="54.0736" y1="554.875" x2="905.473" y2="-85.1013" gradientUnits="userSpaceOnUse">
<stop stop-color="#3EE1FC"/>
<stop offset="1" stop-color="#3E82FC"/>
</linearGradient>
<linearGradient id="paint9_linear_464_10698" x1="95.117" y1="547.571" x2="903.262" y2="-60.7615" gradientUnits="userSpaceOnUse">
<stop stop-color="#3EE1FC"/>
<stop offset="1" stop-color="#3E82FC"/>
</linearGradient>
<linearGradient id="paint10_linear_464_10698" x1="163.352" y1="521.349" x2="372.66" y2="359.916" gradientUnits="userSpaceOnUse">
<stop stop-color="#3EE1FC"/>
<stop offset="1" stop-color="#3E82FC"/>
</linearGradient>
<linearGradient id="paint11_linear_464_10698" x1="336.794" y1="554.149" x2="648.78" y2="314.845" gradientUnits="userSpaceOnUse">
<stop stop-color="#3EE1FC"/>
<stop offset="1" stop-color="#3E82FC"/>
</linearGradient>
<linearGradient id="paint12_linear_464_10698" x1="372.329" y1="569.923" x2="662.661" y2="369.631" gradientUnits="userSpaceOnUse">
<stop stop-color="#3EE1FC"/>
<stop offset="1" stop-color="#3E82FC"/>
</linearGradient>
<linearGradient id="paint13_linear_464_10698" x1="629.889" y1="455.264" x2="855.497" y2="295.465" gradientUnits="userSpaceOnUse">
<stop stop-color="#3EE1FC"/>
<stop offset="1" stop-color="#3E82FC"/>
</linearGradient>
<linearGradient id="paint14_linear_464_10698" x1="462.794" y1="426.007" x2="928.603" y2="92.7055" gradientUnits="userSpaceOnUse">
<stop stop-color="#3EE1FC"/>
<stop offset="1" stop-color="#3E82FC"/>
</linearGradient>
<linearGradient id="paint15_linear_464_10698" x1="387.998" y1="568.714" x2="629.252" y2="410.607" gradientUnits="userSpaceOnUse">
<stop stop-color="#3EE1FC"/>
<stop offset="1" stop-color="#3E82FC"/>
</linearGradient>
<linearGradient id="paint16_linear_464_10698" x1="388.879" y1="459.766" x2="948.894" y2="56.6139" gradientUnits="userSpaceOnUse">
<stop stop-color="#3EE1FC"/>
<stop offset="1" stop-color="#3E82FC"/>
</linearGradient>
<linearGradient id="paint17_linear_464_10698" x1="650.251" y1="792.447" x2="1131.64" y2="428.234" gradientUnits="userSpaceOnUse">
<stop stop-color="#3EE1FC"/>
<stop offset="1" stop-color="#3E82FC"/>
</linearGradient>
<linearGradient id="paint18_linear_464_10698" x1="279.303" y1="210.568" x2="694.606" y2="-102.017" gradientUnits="userSpaceOnUse">
<stop stop-color="#3EE1FC"/>
<stop offset="1" stop-color="#3E82FC"/>
</linearGradient>
<linearGradient id="paint19_linear_464_10698" x1="443.639" y1="-113.548" x2="906.552" y2="-533.695" gradientUnits="userSpaceOnUse">
<stop stop-color="#3EE1FC"/>
<stop offset="1" stop-color="#3E82FC"/>
</linearGradient>
<linearGradient id="paint20_linear_464_10698" x1="416.959" y1="108.157" x2="641.169" y2="-77.7793" gradientUnits="userSpaceOnUse">
<stop stop-color="#3EE1FC"/>
<stop offset="1" stop-color="#3E82FC"/>
</linearGradient>
<linearGradient id="paint21_linear_464_10698" x1="-9.09282" y1="566.875" x2="906.635" y2="-121.533" gradientUnits="userSpaceOnUse">
<stop stop-color="#3EE1FC"/>
<stop offset="1" stop-color="#3E82FC"/>
</linearGradient>
<linearGradient id="paint22_linear_464_10698" x1="260.097" y1="214.146" x2="693.361" y2="-113.997" gradientUnits="userSpaceOnUse">
<stop stop-color="#3EE1FC"/>
<stop offset="1" stop-color="#3E82FC"/>
</linearGradient>
<linearGradient id="paint23_linear_464_10698" x1="429.973" y1="-113.082" x2="912.297" y2="-549.89" gradientUnits="userSpaceOnUse">
<stop stop-color="#3EE1FC"/>
<stop offset="1" stop-color="#3E82FC"/>
</linearGradient>
<linearGradient id="paint24_linear_464_10698" x1="483.23" y1="86.6411" x2="583.39" y2="6.06828" gradientUnits="userSpaceOnUse">
<stop stop-color="#3EE1FC"/>
<stop offset="1" stop-color="#3E82FC"/>
</linearGradient>
<linearGradient id="paint25_linear_464_10698" x1="350.504" y1="262.209" x2="404.75" y2="214.952" gradientUnits="userSpaceOnUse">
<stop stop-color="#3EE1FC"/>
<stop offset="1" stop-color="#3E82FC"/>
</linearGradient>
<linearGradient id="paint26_linear_464_10698" x1="637.606" y1="790.926" x2="1172.6" y2="391.172" gradientUnits="userSpaceOnUse">
<stop stop-color="#3EE1FC"/>
<stop offset="1" stop-color="#3E82FC"/>
</linearGradient>
<linearGradient id="paint27_linear_464_10698" x1="447.575" y1="98.4769" x2="599.553" y2="-28.6477" gradientUnits="userSpaceOnUse">
<stop stop-color="#3EE1FC"/>
<stop offset="1" stop-color="#3E82FC"/>
</linearGradient>
<linearGradient id="paint28_linear_464_10698" x1="490.609" y1="386.594" x2="602.76" y2="322.254" gradientUnits="userSpaceOnUse">
<stop stop-color="#3EE1FC"/>
<stop offset="1" stop-color="#3E82FC"/>
</linearGradient>
<linearGradient id="paint29_linear_464_10698" x1="395.265" y1="281.746" x2="404.848" y2="284.165" gradientUnits="userSpaceOnUse">
<stop stop-color="#3EE1FC"/>
<stop offset="1" stop-color="#3E82FC"/>
</linearGradient>
<linearGradient id="paint30_linear_464_10698" x1="395.408" y1="269.43" x2="396.186" y2="268.66" gradientUnits="userSpaceOnUse">
<stop stop-color="#3EE1FC"/>
<stop offset="1" stop-color="#3E82FC"/>
</linearGradient>
<linearGradient id="paint31_linear_464_10698" x1="532.998" y1="109.63" x2="542.581" y2="112.048" gradientUnits="userSpaceOnUse">
<stop stop-color="#3EE1FC"/>
<stop offset="1" stop-color="#3E82FC"/>
</linearGradient>
<linearGradient id="paint32_linear_464_10698" x1="533.132" y1="97.3222" x2="533.911" y2="96.5521" gradientUnits="userSpaceOnUse">
<stop stop-color="#3EE1FC"/>
<stop offset="1" stop-color="#3E82FC"/>
</linearGradient>
<linearGradient id="paint33_linear_464_10698" x1="467.823" y1="-109.338" x2="900.853" y2="-502.785" gradientUnits="userSpaceOnUse">
<stop stop-color="#3EE1FC"/>
<stop offset="1" stop-color="#3E82FC"/>
</linearGradient>
<linearGradient id="paint34_linear_464_10698" x1="496.307" y1="88.5956" x2="545.994" y2="45.7933" gradientUnits="userSpaceOnUse">
<stop stop-color="#3EE1FC"/>
<stop offset="1" stop-color="#3E82FC"/>
</linearGradient>
<linearGradient id="paint35_linear_464_10698" x1="514.198" y1="98.44" x2="540.973" y2="75.3103" gradientUnits="userSpaceOnUse">
<stop stop-color="#3EE1FC"/>
<stop offset="1" stop-color="#3E82FC"/>
</linearGradient>
<linearGradient id="paint36_linear_464_10698" x1="373.327" y1="274.492" x2="404.887" y2="246.874" gradientUnits="userSpaceOnUse">
<stop stop-color="#3EE1FC"/>
<stop offset="1" stop-color="#3E82FC"/>
</linearGradient>
<linearGradient id="paint37_linear_464_10698" x1="341.828" y1="264.066" x2="415.391" y2="201.177" gradientUnits="userSpaceOnUse">
<stop stop-color="#3EE1FC"/>
<stop offset="1" stop-color="#3E82FC"/>
</linearGradient>
<linearGradient id="paint38_linear_464_10698" x1="-337.502" y1="391.932" x2="-10.2754" y2="112.662" gradientUnits="userSpaceOnUse">
<stop stop-color="#3EE1FC"/>
<stop offset="1" stop-color="#3E82FC"/>
</linearGradient>
<linearGradient id="paint39_linear_464_10698" x1="-28.9129" y1="113.283" x2="452.481" y2="-250.93" gradientUnits="userSpaceOnUse">
<stop stop-color="#3EE1FC"/>
<stop offset="1" stop-color="#3E82FC"/>
</linearGradient>
<linearGradient id="paint40_linear_464_10698" x1="-235.525" y1="-792.711" x2="227.388" y2="-1212.86" gradientUnits="userSpaceOnUse">
<stop stop-color="#3EE1FC"/>
<stop offset="1" stop-color="#3E82FC"/>
</linearGradient>
<linearGradient id="paint41_linear_464_10698" x1="11.3216" y1="121.04" x2="446.705" y2="-202.1" gradientUnits="userSpaceOnUse">
<stop stop-color="#3EE1FC"/>
<stop offset="1" stop-color="#3E82FC"/>
</linearGradient>
<linearGradient id="paint42_linear_464_10698" x1="-249.122" y1="-792.264" x2="233.151" y2="-1229.03" gradientUnits="userSpaceOnUse">
<stop stop-color="#3EE1FC"/>
<stop offset="1" stop-color="#3E82FC"/>
</linearGradient>
<linearGradient id="paint43_linear_464_10698" x1="-246.374" y1="454.252" x2="15.6046" y2="236.751" gradientUnits="userSpaceOnUse">
<stop stop-color="#3EE1FC"/>
<stop offset="1" stop-color="#3E82FC"/>
</linearGradient>
<linearGradient id="paint44_linear_464_10698" x1="-41.5577" y1="111.762" x2="493.436" y2="-287.991" gradientUnits="userSpaceOnUse">
<stop stop-color="#3EE1FC"/>
<stop offset="1" stop-color="#3E82FC"/>
</linearGradient>
<linearGradient id="paint45_linear_464_10698" x1="-346.992" y1="388.902" x2="-9.49732" y2="99.1856" gradientUnits="userSpaceOnUse">
<stop stop-color="#3EE1FC"/>
<stop offset="1" stop-color="#3E82FC"/>
</linearGradient>
<linearGradient id="paint46_linear_464_10698" x1="-291.9" y1="422.991" x2="8.9285" y2="170.717" gradientUnits="userSpaceOnUse">
<stop stop-color="#3EE1FC"/>
<stop offset="1" stop-color="#3E82FC"/>
</linearGradient>
<linearGradient id="paint47_linear_464_10698" x1="133.784" y1="133.982" x2="483.663" y2="-100.855" gradientUnits="userSpaceOnUse">
<stop stop-color="#3EE1FC"/>
<stop offset="1" stop-color="#3E82FC"/>
</linearGradient>
<linearGradient id="paint48_linear_464_10698" x1="77.5705" y1="123.365" x2="459.48" y2="-151.361" gradientUnits="userSpaceOnUse">
<stop stop-color="#3EE1FC"/>
<stop offset="1" stop-color="#3E82FC"/>
</linearGradient>
<linearGradient id="paint49_linear_464_10698" x1="48.8439" y1="405.38" x2="248.545" y2="258.236" gradientUnits="userSpaceOnUse">
<stop stop-color="#3EE1FC"/>
<stop offset="1" stop-color="#3E82FC"/>
</linearGradient>
<linearGradient id="paint50_linear_464_10698" x1="81.367" y1="422.354" x2="213.863" y2="322.906" gradientUnits="userSpaceOnUse">
<stop stop-color="#3EE1FC"/>
<stop offset="1" stop-color="#3E82FC"/>
</linearGradient>
<linearGradient id="paint51_linear_464_10698" x1="114.421" y1="429.017" x2="200.915" y2="363.915" gradientUnits="userSpaceOnUse">
<stop stop-color="#3EE1FC"/>
<stop offset="1" stop-color="#3E82FC"/>
</linearGradient>
<linearGradient id="paint52_linear_464_10698" x1="149.055" y1="432.034" x2="195.651" y2="398.007" gradientUnits="userSpaceOnUse">
<stop stop-color="#3EE1FC"/>
<stop offset="1" stop-color="#3E82FC"/>
</linearGradient>
<clipPath id="clip0_464_10698">
<rect width="931.134" height="600.265" fill="white" transform="translate(-9.02336 -213.403) rotate(15)"/>
</clipPath>
</defs>
</svg>
